<?xml version="1.0" encoding="utf-8"?>
<!-- Generator: Adobe Illustrator 23.0.1, SVG Export Plug-In . SVG Version: 6.00 Build 0)  -->
<svg version="1.1" id="Layer_1" xmlns="http://www.w3.org/2000/svg" xmlns:xlink="http://www.w3.org/1999/xlink" x="0px" y="0px"
	 width="167.59px" height="34px" viewBox="0 0 167.59 34" style="enable-background:new 0 0 167.59 34;" xml:space="preserve">
<style type="text/css">
	.st0{display:none;}
	.st1{display:inline;fill:#FF9900;}
	.st2{fill:#FF9900;}
	.st3{display:inline;fill:#FFFFFF;}
	.st4{font-family:'Oswald-Bold';}
	.st5{font-size:21.192px;}
</style>
<g class="st0">
	<rect x="-45.39" y="-9" class="st1" width="247.25" height="52"/>
</g>
<g>
	<g>
		<g>
			<g>
				<g>
					<g>
						<g>
							<polygon class="st2" points="128.04,26.79 118.54,32.84 118.54,26.51 118.52,26.22 126.04,25.88 							"/>
						</g>
					</g>
					<g>
						<g>
							<g>
								<g>
									<path class="st2" d="M144.74,21.77c-0.33,0.4-0.91,0.6-1.73,0.6h-0.79v-5.15h0.74c0.85,0,1.43,0.2,1.77,0.61
										c0.34,0.39,0.51,1.08,0.51,2.04C145.24,20.74,145.07,21.37,144.74,21.77z"/>
									<path class="st2" d="M145.04,12.43c0,0.8-0.14,1.38-0.44,1.74c-0.29,0.37-0.84,0.55-1.66,0.55h-0.72v-4.31h0.6
										C144.3,10.41,145.04,11.08,145.04,12.43z"/>
									<path class="st2" d="M162.54,16.26c0,6.77,1.42,12.26-4.69,12.26h-41.62c-6.11,0-4.69-5.49-4.69-12.26
										c0-2.15-0.14-4.17-0.14-5.92c0-3.78,0.66-6.34,4.83-6.34h41.62C163.96,4,162.54,9.49,162.54,16.26z M155.36,18.87
										c0.24,0.28,0.45,0.61,0.61,1c0.17,0.39,0.25,0.81,0.25,1.28c0,0.82-0.32,1.24-0.96,1.24c-0.49,0-0.86-0.24-1.11-0.73
										c-0.24-0.49-0.37-1.27-0.38-2.34l-3.25,0.49c0.06,1.9,0.49,3.28,1.29,4.15c0.79,0.86,2,1.3,3.63,1.3
										c1.35,0,2.43-0.41,3.26-1.23c0.83-0.82,1.24-1.85,1.24-3.09c0-0.57-0.06-1.11-0.2-1.61c-0.13-0.5-0.33-0.96-0.59-1.38
										c-0.26-0.41-0.54-0.79-0.83-1.11c-0.29-0.33-0.64-0.67-1.04-1.03l-1.46-1.29c-0.28-0.26-0.49-0.45-0.62-0.57
										c-0.12-0.13-0.28-0.32-0.48-0.56c-0.19-0.25-0.33-0.51-0.41-0.77c-0.08-0.27-0.12-0.57-0.12-0.89
										c0-0.34,0.09-0.64,0.26-0.92c0.18-0.27,0.43-0.41,0.77-0.41c0.16-0.01,0.3,0.01,0.43,0.06c0.11,0.05,0.22,0.13,0.29,0.24
										c0.08,0.11,0.15,0.24,0.2,0.37c0.04,0.13,0.08,0.3,0.11,0.52c0.03,0.21,0.05,0.41,0.06,0.6s0.01,0.43,0.02,0.72l3.28-0.42
										c-0.01-0.33-0.03-0.63-0.06-0.91c-0.04-0.29-0.09-0.6-0.18-0.94c-0.09-0.34-0.19-0.65-0.32-0.92s-0.3-0.55-0.52-0.82
										s-0.47-0.5-0.75-0.68c-0.29-0.18-0.64-0.32-1.06-0.43c-0.42-0.11-0.88-0.17-1.39-0.17c-1.49,0.01-2.66,0.4-3.52,1.18
										c-0.85,0.78-1.28,1.89-1.28,3.31c0,0.53,0.05,1.02,0.16,1.46s0.28,0.85,0.52,1.21c0.23,0.36,0.46,0.67,0.7,0.93
										c0.24,0.27,0.55,0.56,0.91,0.87l1.53,1.32C154.78,18.27,155.12,18.59,155.36,18.87z M136.02,19.62V7.86h-3.76v12.31
										c0,0.27,0,0.49-0.02,0.69c-0.01,0.19-0.04,0.4-0.1,0.62c-0.05,0.22-0.12,0.4-0.21,0.54c-0.09,0.14-0.22,0.26-0.38,0.35
										c-0.17,0.1-0.37,0.14-0.6,0.14c-0.24,0-0.44-0.04-0.61-0.14c-0.17-0.09-0.29-0.21-0.38-0.35
										c-0.09-0.14-0.16-0.32-0.22-0.54c-0.05-0.22-0.08-0.43-0.09-0.62c-0.02-0.19-0.03-0.42-0.03-0.69V7.86h-3.74v11.76
										c0,0.75,0.05,1.42,0.14,1.99c0.1,0.57,0.27,1.09,0.5,1.56c0.24,0.47,0.55,0.86,0.94,1.15c0.38,0.3,0.86,0.53,1.44,0.69
										c0.59,0.16,1.27,0.25,2.05,0.25c0.97,0,1.79-0.12,2.45-0.36c0.66-0.24,1.18-0.61,1.56-1.1c0.38-0.5,0.65-1.08,0.82-1.75
										C135.94,21.38,136.02,20.57,136.02,19.62z M148.09,10.43c-0.19-0.55-0.44-0.99-0.77-1.31C147,8.8,146.6,8.54,146.1,8.35
										c-0.49-0.2-0.99-0.33-1.49-0.39c-0.5-0.07-1.07-0.1-1.71-0.1h-4.47v17.16h5.28c1.68,0,2.97-0.42,3.87-1.25
										c0.87-0.81,1.31-2.05,1.31-3.73c0-0.03,0-0.07,0-0.11c-0.01-1.23-0.28-2.19-0.8-2.89c-0.51-0.7-1.26-1.11-2.25-1.24
										c1.65-0.3,2.49-1.45,2.51-3.45c0-0.05,0-0.1,0-0.14C148.36,11.53,148.27,10.94,148.09,10.43z M124.16,20.94
										c0-0.57-0.07-1.11-0.2-1.61c-0.14-0.5-0.33-0.96-0.6-1.38c-0.26-0.41-0.53-0.79-0.82-1.11c-0.29-0.33-0.64-0.67-1.04-1.03
										l-1.46-1.29c-0.29-0.26-0.49-0.45-0.62-0.57c-0.12-0.13-0.28-0.32-0.48-0.56c-0.2-0.25-0.33-0.51-0.41-0.77
										c-0.08-0.27-0.12-0.57-0.12-0.89c0-0.34,0.09-0.64,0.26-0.92c0.18-0.27,0.43-0.41,0.76-0.41c0.17-0.01,0.31,0.01,0.43,0.06
										s0.22,0.13,0.3,0.24s0.14,0.24,0.19,0.37s0.09,0.3,0.12,0.52c0.02,0.21,0.04,0.41,0.05,0.6s0.02,0.43,0.03,0.72l3.28-0.42
										c-0.01-0.33-0.04-0.63-0.07-0.91c-0.03-0.29-0.09-0.6-0.17-0.94c-0.09-0.34-0.2-0.65-0.32-0.92
										c-0.13-0.27-0.3-0.55-0.52-0.82c-0.22-0.27-0.47-0.5-0.76-0.68c-0.28-0.18-0.63-0.32-1.05-0.43
										c-0.42-0.11-0.88-0.17-1.39-0.17c-1.49,0.01-2.67,0.4-3.52,1.18c-0.86,0.78-1.29,1.89-1.29,3.31
										c0,0.53,0.06,1.02,0.17,1.46c0.11,0.44,0.28,0.85,0.51,1.21c0.23,0.36,0.47,0.67,0.71,0.93c0.24,0.27,0.55,0.56,0.91,0.87
										l1.52,1.32c0.44,0.37,0.78,0.69,1.02,0.97c0.24,0.28,0.44,0.61,0.61,1c0.16,0.39,0.25,0.81,0.25,1.28
										c0,0.82-0.33,1.24-0.97,1.24c-0.49,0-0.85-0.24-1.1-0.73c-0.24-0.49-0.37-1.27-0.39-2.34l-3.25,0.49
										c0.07,1.9,0.5,3.28,1.29,4.15c0.8,0.86,2.01,1.3,3.64,1.3c1.34,0,2.43-0.41,3.26-1.23
										C123.75,23.21,124.16,22.18,124.16,20.94z"/>
								</g>
							</g>
						</g>
					</g>
				</g>
			</g>
			<g>
				<g>
					<path class="st2" d="M6.98,25.18L4.91,8.02h3.22l1.01,9.97l1.31-9.97h2.5l1.38,9.91l1.03-9.91h3.18l-2.08,17.16h-3.29
						l-1.46-10.35l-1.41,10.35H6.98z"/>
					<path class="st2" d="M25.28,25.42c-0.95,0-1.76-0.13-2.44-0.38c-0.67-0.25-1.21-0.63-1.6-1.13c-0.4-0.5-0.68-1.09-0.86-1.76
						c-0.18-0.68-0.26-1.47-0.26-2.39v-6.33c0-0.92,0.09-1.72,0.26-2.4s0.46-1.26,0.86-1.75s0.93-0.87,1.6-1.12
						c0.67-0.25,1.49-0.37,2.44-0.37c1.85,0,3.18,0.47,3.99,1.42c0.8,0.95,1.21,2.35,1.21,4.22v6.33c0,1.86-0.4,3.27-1.21,4.23
						C28.46,24.94,27.13,25.42,25.28,25.42z M24.69,22.61c0.16,0.08,0.36,0.12,0.58,0.12s0.42-0.04,0.59-0.12
						c0.17-0.08,0.29-0.18,0.38-0.3c0.09-0.12,0.16-0.28,0.21-0.47s0.08-0.37,0.1-0.54c0.01-0.17,0.02-0.37,0.02-0.6v-8.23
						c0-0.23-0.01-0.43-0.02-0.6c-0.01-0.17-0.05-0.35-0.1-0.54c-0.05-0.19-0.12-0.34-0.21-0.46c-0.09-0.12-0.22-0.22-0.38-0.3
						c-0.17-0.08-0.36-0.12-0.59-0.12s-0.42,0.04-0.58,0.12c-0.16,0.08-0.29,0.18-0.38,0.29c-0.09,0.11-0.16,0.27-0.21,0.47
						s-0.08,0.37-0.09,0.53c-0.01,0.16-0.02,0.36-0.02,0.6v8.23c0,0.24,0,0.44,0.02,0.6s0.04,0.34,0.09,0.54s0.12,0.35,0.21,0.47
						C24.41,22.43,24.53,22.53,24.69,22.61z"/>
					<path class="st2" d="M32.75,25.18V8.02h2.67l3.53,8.24V8.02h3.15v17.16h-2.57l-3.54-8.88v8.88H32.75z"/>
					<path class="st2" d="M44.61,25.18V8.02h4.31c1.13,0,2.06,0.1,2.8,0.3c0.74,0.2,1.33,0.53,1.77,0.98
						c0.44,0.45,0.75,1.01,0.93,1.67c0.18,0.66,0.27,1.48,0.27,2.48v6.19c0,1-0.09,1.84-0.27,2.51c-0.18,0.67-0.49,1.24-0.93,1.71
						s-1.02,0.8-1.76,1.01s-1.65,0.31-2.76,0.31L44.61,25.18L44.61,25.18z M48.4,22.55h0.58c0.29,0,0.54-0.02,0.74-0.06
						c0.2-0.04,0.37-0.1,0.51-0.2c0.13-0.1,0.24-0.2,0.32-0.31c0.08-0.11,0.14-0.26,0.18-0.47c0.04-0.2,0.06-0.4,0.07-0.58
						c0.01-0.18,0.01-0.43,0.01-0.74v-7.38c0-0.44-0.02-0.77-0.05-1c-0.03-0.23-0.11-0.45-0.24-0.64c-0.12-0.19-0.31-0.32-0.55-0.4
						c-0.24-0.07-0.58-0.11-1-0.11h-0.57L48.4,22.55L48.4,22.55z"/>
					<path class="st2" d="M56.98,25.18V8.02h7.71v2.59h-3.92v4.24h2.99v2.64h-2.99v5.12h3.96v2.57H56.98z"/>
					<path class="st2" d="M66.45,25.18V8.02h4.68c0.72,0,1.37,0.04,1.93,0.12s1.08,0.23,1.57,0.44s0.89,0.48,1.21,0.82
						s0.57,0.77,0.75,1.3s0.27,1.15,0.27,1.86c0,1.13-0.15,2.03-0.46,2.71c-0.3,0.68-0.85,1.22-1.65,1.59l2.36,8.31h-3.92L71.3,17.5
						h-1.07v7.68L66.45,25.18L66.45,25.18z M70.24,15.31h0.97c0.77,0,1.32-0.2,1.64-0.6c0.32-0.4,0.48-1,0.48-1.81
						c0-0.79-0.14-1.38-0.43-1.76c-0.29-0.38-0.78-0.57-1.49-0.57h-1.17V15.31z"/>
					<path class="st2" d="M79.12,25.18V8.02h7.43v2.58H82.9v4.32h3.14v2.65H82.9v7.62L79.12,25.18L79.12,25.18z"/>
					<path class="st2" d="M93.25,25.42c-0.78,0-1.46-0.08-2.04-0.24s-1.07-0.39-1.45-0.69s-0.69-0.68-0.93-1.15s-0.4-0.99-0.5-1.56
						c-0.1-0.57-0.14-1.23-0.14-1.99V8.02h3.75v12.31c0,0.27,0.01,0.5,0.02,0.69s0.05,0.4,0.1,0.61c0.05,0.22,0.12,0.4,0.21,0.54
						c0.09,0.14,0.22,0.26,0.39,0.35c0.17,0.09,0.37,0.14,0.61,0.14s0.43-0.05,0.6-0.14c0.17-0.09,0.29-0.21,0.38-0.35
						c0.09-0.14,0.16-0.32,0.21-0.54s0.08-0.43,0.1-0.62c0.01-0.19,0.02-0.42,0.02-0.68V8.02h3.76v11.76c0,0.95-0.08,1.76-0.24,2.43
						s-0.43,1.25-0.81,1.75c-0.38,0.5-0.9,0.86-1.56,1.1S94.22,25.42,93.25,25.42z"/>
					<path class="st2" d="M100.73,25.18V8.02h3.79v14.59h3.93v2.57H100.73z"/>
				</g>
			</g>
		</g>
	</g>
</g>
<g id="Layer_3" class="st0">
	<text transform="matrix(1 0 0 1 25.9287 20.5234)" class="st3 st4 st5">WONDERFULSUBS</text>
</g>
</svg>
