<?xml version="1.0" encoding="utf-8"?>
<!-- Generator: Adobe Illustrator 16.0.0, SVG Export Plug-In . SVG Version: 6.00 Build 0)  -->
<!DOCTYPE svg PUBLIC "-//W3C//DTD SVG 1.1//EN" "http://www.w3.org/Graphics/SVG/1.1/DTD/svg11.dtd">
<svg version="1.1" xmlns="http://www.w3.org/2000/svg" xmlns:xlink="http://www.w3.org/1999/xlink" x="0px" y="0px"
	 width="167.593px" height="34px" viewBox="0 0 167.593 34" enable-background="new 0 0 167.593 34" xml:space="preserve">
<g id="Layer_2" display="none">
	<rect x="-45.389" y="-9" display="inline" fill="#FF9900" width="247.25" height="52"/>
</g>
<g id="Layer_1">
	<g id="jk3DZf_1_">
	</g>
	<g>
		<g>
			<g>
				<g>
					<g>
						<g>
							<polygon fill="#FFFFFF" points="128.038,26.794 118.54,32.84 118.54,26.509 118.52,26.223 126.036,25.875 							"/>
						</g>
					</g>
					<g>
						<g>
							<g>
								<g>
									<path fill="#FFFFFF" d="M144.739,21.77c-0.33,0.4-0.91,0.601-1.729,0.601h-0.79v-5.15h0.739c0.851,0,1.431,0.2,1.771,0.61
										c0.34,0.39,0.51,1.08,0.51,2.04C145.239,20.74,145.069,21.37,144.739,21.77z"/>
									<path fill="#FFFFFF" d="M145.039,12.43c0,0.8-0.14,1.38-0.439,1.74c-0.29,0.37-0.84,0.55-1.66,0.55h-0.72v-4.31h0.6
										C144.3,10.41,145.039,11.08,145.039,12.43z"/>
									<path fill="#FFFFFF" d="M162.539,16.26c0,6.771,1.42,12.26-4.689,12.26h-41.62c-6.11,0-4.69-5.489-4.69-12.26
										c0-2.15-0.14-4.17-0.14-5.92c0-3.78,0.66-6.34,4.83-6.34h41.62C163.959,4,162.539,9.49,162.539,16.26z M155.359,18.87
										c0.24,0.279,0.45,0.609,0.61,1c0.17,0.39,0.25,0.81,0.25,1.279c0,0.82-0.32,1.24-0.96,1.24c-0.49,0-0.86-0.24-1.11-0.729
										c-0.24-0.49-0.37-1.271-0.38-2.34l-3.25,0.489c0.06,1.9,0.49,3.28,1.29,4.15c0.79,0.86,2,1.3,3.63,1.3
										c1.35,0,2.43-0.41,3.26-1.229c0.83-0.82,1.24-1.851,1.24-3.091c0-0.569-0.06-1.109-0.2-1.609
										c-0.13-0.5-0.33-0.96-0.59-1.38c-0.26-0.41-0.54-0.79-0.83-1.11c-0.29-0.33-0.64-0.67-1.04-1.03l-1.46-1.29
										c-0.28-0.26-0.49-0.45-0.62-0.57c-0.12-0.13-0.279-0.32-0.479-0.56c-0.19-0.25-0.33-0.51-0.41-0.77
										c-0.08-0.27-0.12-0.57-0.12-0.89c0-0.34,0.09-0.64,0.26-0.92c0.181-0.27,0.431-0.41,0.771-0.41
										c0.16-0.01,0.3,0.01,0.43,0.06c0.11,0.05,0.22,0.13,0.29,0.24c0.08,0.11,0.15,0.24,0.2,0.37c0.04,0.13,0.08,0.3,0.109,0.52
										c0.03,0.21,0.051,0.41,0.061,0.6s0.01,0.43,0.02,0.72l3.28-0.42c-0.01-0.33-0.03-0.63-0.06-0.91
										c-0.04-0.29-0.091-0.6-0.181-0.94c-0.09-0.34-0.189-0.65-0.319-0.92s-0.301-0.55-0.521-0.82s-0.47-0.5-0.75-0.68
										c-0.29-0.18-0.64-0.32-1.06-0.43c-0.42-0.11-0.88-0.17-1.391-0.17c-1.489,0.01-2.659,0.4-3.52,1.18
										c-0.851,0.78-1.28,1.89-1.28,3.31c0,0.53,0.05,1.02,0.16,1.46s0.28,0.85,0.52,1.21c0.23,0.36,0.461,0.67,0.7,0.93
										c0.24,0.27,0.55,0.56,0.91,0.87l1.53,1.319C154.779,18.27,155.119,18.59,155.359,18.87z M136.02,19.62V7.86h-3.76v12.31
										c0,0.27,0,0.49-0.021,0.689c-0.01,0.19-0.04,0.4-0.1,0.62c-0.05,0.221-0.12,0.4-0.21,0.54
										c-0.09,0.141-0.221,0.261-0.38,0.351c-0.17,0.1-0.37,0.14-0.601,0.14c-0.24,0-0.439-0.04-0.609-0.14
										c-0.17-0.09-0.29-0.21-0.381-0.351c-0.09-0.14-0.159-0.319-0.22-0.54c-0.05-0.22-0.08-0.43-0.09-0.62
										c-0.02-0.189-0.03-0.42-0.03-0.689V7.86h-3.739v11.76c0,0.75,0.05,1.42,0.14,1.989c0.1,0.57,0.27,1.091,0.5,1.561
										c0.24,0.47,0.55,0.86,0.939,1.15c0.381,0.3,0.86,0.529,1.44,0.689c0.59,0.16,1.271,0.25,2.05,0.25
										c0.971,0,1.79-0.12,2.45-0.36c0.66-0.239,1.18-0.609,1.56-1.1c0.381-0.5,0.65-1.08,0.82-1.75
										C135.939,21.38,136.02,20.57,136.02,19.62z M148.09,10.43c-0.19-0.55-0.44-0.99-0.771-1.31c-0.32-0.32-0.72-0.58-1.22-0.77
										c-0.49-0.2-0.99-0.33-1.49-0.39c-0.5-0.07-1.07-0.1-1.71-0.1h-4.47v17.16h5.279c1.681,0,2.971-0.42,3.87-1.25
										c0.87-0.81,1.311-2.05,1.311-3.729c0-0.03,0-0.07,0-0.11c-0.01-1.229-0.28-2.189-0.8-2.89c-0.511-0.7-1.261-1.11-2.25-1.24
										c1.649-0.3,2.489-1.45,2.51-3.45c0-0.05,0-0.1,0-0.14C148.359,11.53,148.27,10.94,148.09,10.43z M124.159,20.939
										c0-0.569-0.069-1.109-0.2-1.609c-0.14-0.5-0.329-0.96-0.6-1.38c-0.26-0.41-0.53-0.79-0.82-1.11
										c-0.29-0.33-0.64-0.67-1.04-1.03l-1.46-1.29c-0.29-0.26-0.489-0.45-0.619-0.57c-0.12-0.13-0.28-0.32-0.48-0.56
										c-0.2-0.25-0.33-0.51-0.41-0.77c-0.08-0.27-0.12-0.57-0.12-0.89c0-0.34,0.09-0.64,0.261-0.92
										c0.18-0.27,0.43-0.41,0.76-0.41c0.17-0.01,0.31,0.01,0.43,0.06c0.12,0.05,0.22,0.13,0.3,0.24
										c0.08,0.11,0.141,0.24,0.19,0.37s0.09,0.3,0.12,0.52c0.02,0.21,0.04,0.41,0.05,0.6s0.02,0.43,0.03,0.72l3.279-0.42
										c-0.01-0.33-0.04-0.63-0.069-0.91c-0.03-0.29-0.09-0.6-0.17-0.94c-0.091-0.34-0.2-0.65-0.32-0.92
										c-0.13-0.27-0.3-0.55-0.521-0.82c-0.22-0.27-0.47-0.5-0.76-0.68c-0.28-0.18-0.63-0.32-1.05-0.43
										c-0.42-0.11-0.88-0.17-1.39-0.17c-1.49,0.01-2.67,0.4-3.521,1.18c-0.859,0.78-1.29,1.89-1.29,3.31
										c0,0.53,0.061,1.02,0.17,1.46c0.11,0.44,0.28,0.85,0.511,1.21c0.229,0.36,0.47,0.67,0.71,0.93
										c0.239,0.27,0.55,0.56,0.909,0.87l1.521,1.319c0.439,0.37,0.78,0.69,1.02,0.971c0.24,0.279,0.44,0.609,0.61,1
										c0.16,0.39,0.25,0.81,0.25,1.279c0,0.82-0.33,1.24-0.97,1.24c-0.49,0-0.851-0.24-1.101-0.729
										c-0.239-0.49-0.37-1.271-0.39-2.34l-3.25,0.489c0.07,1.9,0.5,3.28,1.29,4.15c0.8,0.86,2.01,1.3,3.64,1.3
										c1.34,0,2.431-0.41,3.261-1.229C123.749,23.21,124.159,22.18,124.159,20.939z"/>
								</g>
							</g>
						</g>
					</g>
				</g>
			</g>
			<g>
				<g>
					<path fill="#FFFFFF" d="M6.983,25.177L4.914,8.021h3.218l1.014,9.965l1.314-9.965h2.504l1.376,9.913l1.035-9.913h3.177
						l-2.08,17.156h-3.291l-1.459-10.348l-1.407,10.348H6.983z"/>
					<path fill="#FFFFFF" d="M25.278,25.415c-0.952,0-1.764-0.126-2.437-0.378c-0.672-0.252-1.207-0.628-1.604-1.128
						c-0.396-0.5-0.683-1.088-0.859-1.764c-0.176-0.677-0.264-1.473-0.264-2.391v-6.333c0-0.924,0.088-1.723,0.264-2.396
						c0.176-0.673,0.462-1.257,0.859-1.754c0.397-0.497,0.932-0.869,1.604-1.118c0.673-0.248,1.485-0.372,2.437-0.372
						c1.855,0,3.185,0.475,3.989,1.423c0.804,0.949,1.206,2.354,1.206,4.217v6.333c0,1.862-0.402,3.271-1.206,4.227
						C28.463,24.938,27.133,25.415,25.278,25.415z M24.693,22.61c0.162,0.083,0.357,0.124,0.585,0.124s0.424-0.039,0.59-0.119
						c0.166-0.079,0.293-0.179,0.383-0.3c0.089-0.12,0.16-0.277,0.212-0.471s0.084-0.374,0.099-0.543
						c0.014-0.169,0.021-0.371,0.021-0.605V12.47c0-0.228-0.007-0.426-0.021-0.595c-0.014-0.169-0.047-0.349-0.099-0.538
						c-0.052-0.19-0.123-0.343-0.212-0.46c-0.09-0.117-0.217-0.217-0.383-0.295c-0.166-0.08-0.362-0.119-0.59-0.119
						s-0.423,0.039-0.585,0.119c-0.162,0.078-0.288,0.176-0.377,0.289c-0.09,0.113-0.159,0.27-0.207,0.466s-0.078,0.374-0.088,0.532
						c-0.01,0.159-0.016,0.359-0.016,0.601v8.227c0,0.242,0.005,0.443,0.016,0.605s0.04,0.342,0.088,0.538s0.117,0.354,0.207,0.471
						C24.405,22.428,24.531,22.527,24.693,22.61z"/>
					<path fill="#FFFFFF" d="M32.749,25.177V8.021h2.67l3.528,8.237V8.021h3.146v17.156h-2.566l-3.539-8.878v8.878H32.749z"/>
					<path fill="#FFFFFF" d="M44.607,25.177V8.021h4.315c1.125,0,2.058,0.101,2.799,0.3c0.741,0.2,1.333,0.527,1.774,0.983
						c0.441,0.455,0.752,1.013,0.932,1.671c0.179,0.658,0.269,1.484,0.269,2.479v6.188c0,1.001-0.092,1.837-0.274,2.509
						c-0.183,0.673-0.493,1.242-0.931,1.708c-0.438,0.466-1.024,0.802-1.759,1.009s-1.654,0.311-2.758,0.311H44.607z M48.395,22.549
						h0.579c0.29,0,0.537-0.02,0.74-0.058c0.203-0.037,0.373-0.104,0.507-0.201c0.135-0.097,0.241-0.199,0.321-0.306
						c0.079-0.106,0.138-0.262,0.176-0.466c0.038-0.203,0.062-0.396,0.073-0.579c0.01-0.183,0.015-0.43,0.015-0.739v-7.378
						c0-0.436-0.017-0.77-0.052-1.004c-0.034-0.234-0.114-0.449-0.238-0.643c-0.124-0.192-0.309-0.325-0.554-0.398
						c-0.245-0.072-0.578-0.107-0.999-0.107h-0.569V22.549z"/>
					<path fill="#FFFFFF" d="M56.983,25.177V8.021h7.709v2.587h-3.921v4.242h2.99v2.639h-2.99v5.122h3.963v2.566H56.983z"/>
					<path fill="#FFFFFF" d="M66.451,25.177V8.021h4.677c0.725,0,1.366,0.041,1.925,0.124s1.083,0.228,1.573,0.435
						s0.894,0.479,1.211,0.817c0.317,0.338,0.565,0.773,0.745,1.304c0.18,0.531,0.269,1.152,0.269,1.862
						c0,1.125-0.152,2.029-0.455,2.711c-0.304,0.684-0.852,1.215-1.646,1.594l2.359,8.31h-3.922l-1.883-7.678h-1.065v7.678H66.451z
						 M70.238,15.315h0.973c0.772,0,1.317-0.2,1.635-0.601c0.317-0.399,0.476-1.004,0.476-1.811c0-0.793-0.143-1.381-0.43-1.764
						c-0.286-0.383-0.781-0.574-1.485-0.574h-1.169V15.315z"/>
					<path fill="#FFFFFF" d="M79.116,25.177V8.021h7.429v2.576h-3.642v4.315h3.135v2.648h-3.135v7.616H79.116z"/>
					<path fill="#FFFFFF" d="M93.25,25.415c-0.779,0-1.461-0.081-2.044-0.243s-1.065-0.392-1.448-0.688s-0.693-0.681-0.932-1.153
						s-0.405-0.994-0.502-1.563c-0.097-0.568-0.145-1.232-0.145-1.991V8.021h3.746v12.313c0,0.269,0.007,0.499,0.021,0.688
						s0.047,0.395,0.099,0.615c0.051,0.221,0.122,0.402,0.212,0.543c0.089,0.142,0.219,0.259,0.388,0.353
						c0.169,0.093,0.371,0.14,0.605,0.14s0.435-0.047,0.601-0.14c0.165-0.094,0.293-0.211,0.383-0.353
						c0.089-0.141,0.16-0.322,0.212-0.543s0.084-0.428,0.098-0.621c0.015-0.193,0.021-0.42,0.021-0.683V8.021h3.756v11.755
						c0,0.952-0.081,1.763-0.243,2.432s-0.433,1.252-0.813,1.749c-0.379,0.496-0.9,0.863-1.563,1.102S94.223,25.415,93.25,25.415z"
						/>
					<path fill="#FFFFFF" d="M100.732,25.177V8.021h3.787v14.59h3.931v2.566H100.732z"/>
				</g>
			</g>
		</g>
	</g>
</g>
<g id="Layer_3" display="none">
	
		<text transform="matrix(1 0 0 1 25.9287 20.5234)" display="inline" fill="#FFFFFF" font-family="'Oswald-Bold'" font-size="21.192">WONDERFULSUBS</text>
</g>
</svg>
