<?xml version="1.0" standalone="no"?>
<!DOCTYPE svg PUBLIC "-//W3C//DTD SVG 20010904//EN"
 "http://www.w3.org/TR/2001/REC-SVG-20010904/DTD/svg10.dtd">
<svg version="1.0" xmlns="http://www.w3.org/2000/svg"
 width="718.000000pt" height="718.000000pt" viewBox="0 0 718.000000 718.000000"
 preserveAspectRatio="xMidYMid meet">
<metadata>
Created by potrace 1.11, written by Peter Selinger 2001-2013
</metadata>
<g transform="translate(0.000000,718.000000) scale(0.100000,-0.100000)"
fill="#000000" stroke="none">
<path d="M520 6854 c-242 -52 -389 -244 -460 -598 -50 -247 -55 -349 -53 -946
3 -638 3 -1815 0 -2465 -2 -453 2 -608 18 -718 2 -18 7 -50 9 -72 56 -464 241
-718 550 -751 33 -4 281 -7 550 -8 l489 -1 0 -483 c0 -265 3 -484 6 -486 5 -4
740 459 768 483 7 6 14 11 17 11 3 0 452 283 546 345 19 13 73 47 120 77 l85
55 1710 0 c1534 1 1717 2 1778 17 277 66 429 300 486 751 14 109 19 164 26
269 9 123 8 672 -1 1016 -9 369 -9 1096 1 1515 9 381 9 810 1 940 -10 152 -16
228 -22 270 -3 22 -7 52 -9 67 -7 53 -27 154 -40 203 -76 290 -207 444 -434
509 -48 14 -367 16 -3065 15 -2552 0 -3021 -3 -3076 -15z m4895 -822 c87 -18
105 -22 153 -38 129 -44 215 -96 299 -180 167 -168 264 -413 290 -729 11 -135
10 -148 -12 -150 -41 -4 -151 -17 -165 -20 -8 -1 -42 -6 -75 -9 -33 -4 -89
-11 -125 -16 -123 -17 -135 -19 -180 -25 -25 -3 -65 -8 -90 -11 -25 -3 -52 -7
-60 -9 -26 -8 -36 9 -36 60 -1 68 -12 224 -19 255 -3 14 -8 38 -10 54 -15 80
-69 160 -124 183 -71 30 -168 16 -227 -34 -99 -84 -126 -280 -65 -471 10 -35
53 -112 77 -141 7 -9 26 -33 42 -53 16 -21 33 -34 37 -30 5 4 5 2 2 -4 -9 -16
255 -262 275 -256 5 1 7 -2 4 -7 -4 -5 2 -16 12 -23 11 -7 39 -31 64 -53 25
-22 74 -65 109 -95 35 -30 111 -102 170 -160 338 -335 476 -634 477 -1030 0
-309 -80 -519 -272 -714 -159 -161 -361 -256 -601 -281 -68 -7 -287 -8 -325
-1 -14 3 -43 7 -65 10 -22 2 -51 7 -65 11 -14 3 -36 7 -50 9 -14 2 -32 6 -40
8 -8 3 -40 13 -70 23 -125 41 -264 126 -351 215 -46 47 -110 141 -145 211 -70
141 -100 244 -139 478 -4 21 -10 101 -19 223 l-3 47 36 5 c20 3 92 14 161 25
69 11 145 23 170 26 25 3 70 10 100 15 30 6 75 13 100 16 25 3 56 7 70 10 14
2 44 7 68 10 l42 5 1 -73 c6 -353 96 -567 259 -614 49 -15 131 -9 173 11 20 9
47 31 60 48 44 60 52 95 51 232 -1 136 -17 202 -82 330 -41 81 -58 105 -67 97
-5 -4 -5 -1 -1 6 8 14 -170 197 -293 302 -35 30 -69 60 -75 65 -6 6 -43 37
-81 70 -39 33 -75 64 -81 70 -6 5 -33 28 -59 50 -55 46 -246 234 -288 283 -37
44 -144 207 -152 232 -4 11 -11 20 -16 20 -6 0 -7 5 -4 10 4 6 3 16 -3 23 -23
30 -66 206 -78 319 -8 77 -8 223 0 301 25 242 106 423 256 577 197 202 480
300 845 294 88 -1 183 -7 210 -12z m-3744 -62 c0 -14 2 -34 3 -45 2 -11 6 -55
10 -97 4 -42 9 -92 11 -110 2 -18 7 -62 10 -98 3 -36 8 -76 10 -90 2 -14 7
-59 11 -100 3 -41 8 -88 10 -105 1 -16 5 -61 9 -100 3 -38 8 -87 10 -107 12
-91 15 -117 20 -178 3 -36 8 -81 10 -100 2 -19 7 -64 10 -100 3 -36 7 -81 10
-100 3 -19 7 -62 10 -95 7 -81 15 -163 21 -205 2 -19 6 -62 9 -95 3 -33 7 -76
10 -95 2 -19 7 -62 10 -95 8 -99 16 -169 20 -190 2 -11 4 -38 4 -59 1 -54 10
-40 17 25 3 30 7 65 10 79 2 14 7 48 10 75 3 28 9 75 14 105 5 30 12 78 15
105 7 67 23 189 41 315 3 25 8 60 10 79 2 19 10 82 18 140 16 114 26 191 31
231 7 67 17 137 20 150 2 8 7 44 10 80 4 36 8 72 10 80 6 34 15 98 20 144 3
27 8 59 10 70 3 12 7 44 10 71 5 50 21 180 30 243 3 18 8 54 11 80 7 66 14
106 19 111 7 6 566 7 570 1 1 -3 6 -32 9 -65 4 -33 9 -67 11 -75 2 -8 6 -35 9
-60 3 -25 8 -62 11 -82 10 -72 15 -108 19 -140 3 -18 8 -55 12 -83 4 -27 8
-59 9 -70 1 -11 8 -56 14 -100 7 -44 14 -96 17 -115 2 -19 7 -46 9 -60 2 -14
6 -47 10 -75 3 -27 7 -63 10 -80 2 -16 7 -46 9 -65 9 -63 16 -114 21 -145 2
-16 7 -52 10 -80 4 -27 9 -58 11 -67 3 -9 7 -39 9 -67 3 -27 6 -62 9 -78 12
-78 17 -111 21 -141 9 -68 16 -119 25 -182 6 -36 12 -78 14 -95 13 -107 38
-280 40 -282 2 -3 22 164 31 267 1 14 5 48 8 75 4 28 9 77 12 110 7 81 13 134
25 235 5 47 12 117 15 155 4 39 8 81 10 94 2 13 7 58 10 100 3 42 8 87 10 101
3 14 7 52 10 85 7 74 14 149 20 195 3 19 7 60 9 90 3 30 8 75 11 100 12 107
15 138 20 188 12 123 16 158 20 182 4 24 18 176 19 213 0 9 5 17 11 18 59 6
712 2 716 -5 4 -4 3 -24 -1 -45 -5 -20 -11 -67 -15 -106 -3 -38 -8 -83 -10
-100 -3 -16 -7 -52 -11 -80 -3 -27 -7 -61 -9 -75 -2 -14 -6 -50 -9 -80 -13
-110 -15 -127 -31 -255 -9 -71 -18 -141 -20 -155 -2 -14 -7 -54 -10 -90 -3
-36 -8 -72 -10 -80 -2 -8 -7 -44 -10 -80 -4 -36 -8 -76 -10 -90 -3 -14 -7 -50
-10 -80 -9 -88 -15 -133 -20 -160 -3 -14 -8 -52 -10 -85 -2 -33 -5 -60 -6 -60
0 0 -2 -11 -4 -25 -2 -14 -6 -45 -9 -70 -3 -25 -8 -67 -11 -95 -5 -48 -10 -81
-20 -155 -2 -19 -7 -60 -10 -90 -3 -30 -7 -66 -9 -80 -3 -14 -7 -50 -10 -80
-4 -30 -8 -66 -10 -80 -3 -14 -8 -52 -11 -85 -4 -33 -8 -71 -10 -85 -1 -14 -6
-54 -9 -90 -4 -36 -9 -76 -11 -90 -2 -14 -7 -45 -10 -70 -3 -25 -7 -61 -10
-80 -4 -37 -11 -94 -20 -170 -3 -25 -7 -61 -10 -80 -2 -19 -7 -60 -10 -90 -3
-30 -8 -66 -10 -80 -3 -14 -7 -50 -10 -80 -3 -30 -10 -89 -16 -131 -5 -41 -12
-95 -14 -119 -2 -24 -9 -78 -15 -119 -5 -42 -12 -98 -15 -126 -3 -27 -8 -62
-11 -78 l-6 -27 -373 0 -373 0 -12 73 c-6 39 -13 90 -16 112 -10 72 -12 89
-19 135 -4 25 -8 56 -10 70 -2 14 -6 45 -10 70 -8 52 -10 68 -24 170 -6 41
-13 95 -16 120 -3 25 -8 56 -10 70 -3 14 -7 43 -10 65 -2 22 -7 51 -9 65 -3
14 -8 48 -11 75 -3 28 -7 61 -10 75 -6 32 -12 80 -31 215 -8 61 -16 124 -19
140 -7 52 -14 97 -25 180 -6 44 -14 94 -16 110 -3 17 -7 44 -8 60 -2 17 -7 50
-10 75 -4 25 -9 56 -11 70 -10 72 -19 136 -20 140 -1 3 -5 37 -10 75 -5 39
-10 73 -11 78 -1 4 -2 21 -3 39 -2 63 -14 15 -37 -149 -13 -92 -26 -181 -28
-198 -3 -16 -8 -57 -12 -90 -3 -33 -8 -69 -10 -80 -5 -21 -10 -62 -19 -135 -3
-25 -7 -56 -10 -70 -2 -14 -7 -45 -10 -70 -3 -25 -7 -56 -9 -70 -2 -14 -7 -51
-11 -84 -4 -32 -8 -68 -10 -80 -5 -30 -36 -255 -41 -296 -2 -19 -6 -48 -9 -65
-10 -64 -16 -103 -19 -136 -2 -19 -16 -122 -31 -229 -15 -107 -28 -208 -30
-225 -6 -48 -16 -115 -20 -138 -3 -11 -7 -45 -10 -76 -10 -101 34 -91 -396
-91 -354 0 -379 1 -380 18 -2 31 -8 85 -19 172 -6 47 -13 99 -15 115 -2 17 -6
48 -9 70 -12 91 -18 142 -22 185 -2 25 -6 61 -9 80 -3 19 -7 58 -10 85 -3 28
-8 61 -10 75 -2 14 -7 48 -10 75 -3 28 -7 70 -10 95 -3 25 -8 65 -11 90 -3 25
-12 101 -21 170 -19 157 -21 173 -29 240 -5 53 -8 73 -19 158 -3 20 -7 60 -10
87 -3 28 -8 66 -10 85 -8 60 -33 273 -39 325 -4 28 -8 64 -11 80 -13 90 -17
121 -17 135 0 8 -7 67 -14 130 -16 128 -21 172 -29 245 -3 28 -8 61 -10 75 -2
14 -7 50 -10 80 -3 30 -8 71 -10 90 -14 105 -25 202 -30 255 -4 33 -8 71 -11
85 -2 14 -11 86 -19 160 -8 74 -20 164 -25 200 -5 36 -13 94 -16 130 -4 36 -8
74 -9 85 -3 29 14 30 397 30 l338 0 1 -25z"/>
</g>
</svg>
