<?xml version="1.0" standalone="no"?>
<!DOCTYPE svg PUBLIC "-//W3C//DTD SVG 20010904//EN"
 "http://www.w3.org/TR/2001/REC-SVG-20010904/DTD/svg10.dtd">
<svg version="1.0" xmlns="http://www.w3.org/2000/svg"
 width="1024.000000pt" height="1024.000000pt" viewBox="0 0 1024.000000 1024.000000"
 preserveAspectRatio="xMidYMid meet">
<metadata>
Created by potrace 1.11, written by Peter Selinger 2001-2013
</metadata>
<g transform="translate(0.000000,1024.000000) scale(0.100000,-0.100000)"
fill="#000000" stroke="none">
<path d="M7650 8133 c-233 -22 -406 -56 -583 -114 -203 -67 -439 -192 -552
-293 -37 -33 -35 -32 45 15 268 160 548 264 867 321 112 20 161 23 393 23 302
0 389 -12 614 -86 315 -103 580 -272 884 -564 62 -59 115 -105 118 -102 10 9
-34 83 -94 158 -309 389 -923 653 -1502 647 -85 -1 -171 -3 -190 -5z"/>
<path d="M2103 8014 c-360 -43 -704 -209 -971 -468 -63 -61 -143 -149 -178
-196 -61 -81 -134 -206 -134 -229 0 -27 24 -3 105 110 264 366 593 595 1016
708 170 46 298 61 517 61 202 0 315 -9 497 -40 176 -30 185 -32 130 -15 -72
21 -330 63 -465 75 -153 13 -379 11 -517 -6z"/>
<path d="M3160 7920 c34 -11 60 -11 35 0 -11 5 -29 8 -40 8 -16 0 -15 -2 5 -8z"/>
<path d="M7318 6069 c-200 -19 -405 -76 -564 -155 -85 -43 -204 -125 -204
-142 0 -4 10 -12 23 -17 36 -16 32 -47 -16 -106 -24 -30 -46 -62 -50 -72 -13
-34 59 -77 78 -47 11 17 225 140 304 175 98 43 216 79 327 102 133 27 413 24
550 -5 316 -68 590 -217 819 -447 145 -144 233 -266 320 -440 118 -237 171
-448 182 -729 l6 -159 17 39 c9 21 31 71 50 109 30 62 35 82 38 165 7 155 -57
530 -123 728 -120 358 -364 637 -711 813 -303 154 -687 223 -1046 188z"/>
<path d="M2505 6055 c-485 -78 -922 -368 -1175 -780 -91 -148 -164 -339 -202
-530 -19 -92 -23 -144 -23 -312 0 -148 3 -205 13 -215 9 -9 12 -8 12 9 0 29
20 83 31 83 10 0 22 -24 97 -195 47 -108 121 -250 127 -243 1 2 -8 53 -22 113
-30 136 -42 419 -24 560 66 501 366 926 806 1141 121 59 218 92 346 120 118
26 399 26 518 1 197 -42 369 -115 539 -227 96 -63 125 -69 137 -30 9 28 -17
75 -80 150 -30 35 -55 68 -55 72 0 12 33 9 80 -7 24 -8 45 -14 46 -12 7 7
-200 138 -272 172 -91 43 -250 97 -354 120 -105 24 -424 29 -545 10z"/>
<path d="M7293 5558 c-13 -6 -23 -14 -23 -18 0 -15 39 -39 113 -70 136 -56
208 -129 245 -249 23 -76 23 -325 -2 -426 -24 -101 -69 -187 -122 -234 -64
-56 -128 -76 -240 -76 -82 1 -98 4 -157 33 -73 36 -113 80 -152 164 -45 98
-60 174 -60 303 0 147 17 198 111 342 71 108 82 136 64 158 -23 28 -65 13
-138 -48 -193 -162 -365 -485 -431 -812 -77 -381 -31 -846 114 -1152 129 -274
312 -433 595 -518 l85 -25 -70 6 c-124 10 -317 35 -419 55 -55 10 -101 17
-103 15 -7 -6 198 -76 295 -100 179 -45 302 -59 522 -59 237 0 398 20 632 79
129 33 373 112 366 119 -2 2 -56 -9 -121 -25 -143 -35 -327 -66 -467 -79 -126
-12 -353 -22 -325 -15 11 3 55 14 98 25 480 120 746 632 748 1442 1 410 -90
670 -313 889 -125 123 -281 208 -475 259 -93 25 -334 36 -370 17z m700 -1051
c69 -89 130 -217 159 -333 33 -132 31 -342 -4 -475 -72 -268 -236 -450 -447
-495 -99 -21 -281 -18 -375 6 -209 53 -352 187 -412 385 -14 46 -18 90 -18
190 2 150 24 254 94 427 41 103 69 150 56 96 -11 -48 13 -291 39 -394 53 -211
175 -387 311 -451 51 -24 71 -28 154 -28 117 0 168 21 250 105 66 67 110 145
146 265 27 86 28 99 28 310 1 188 -2 237 -22 337 -24 126 -24 128 -18 128 2 0
29 -33 59 -73z"/>
<path d="M2595 5535 c-33 -8 -65 -14 -71 -14 -5 -1 -19 -7 -29 -15 -29 -21 -4
-43 58 -51 132 -16 207 -67 260 -176 34 -68 64 -188 72 -281 18 -197 -90 -410
-244 -485 -48 -24 -68 -28 -136 -27 -113 1 -179 28 -259 108 -113 112 -156
244 -137 418 15 135 49 220 122 303 19 22 29 43 27 57 -12 84 -150 -56 -247
-249 -149 -298 -202 -654 -155 -1051 50 -431 237 -772 527 -959 266 -173 610
-189 889 -41 88 46 223 181 282 283 137 235 189 495 189 945 1 297 -13 405
-74 596 -71 224 -170 367 -341 494 -147 110 -319 160 -543 159 -71 0 -157 -7
-190 -14z m710 -1160 c159 -349 179 -667 58 -915 -50 -104 -169 -223 -273
-274 -229 -112 -482 -77 -660 91 -87 81 -136 155 -176 263 -49 129 -67 263
-61 433 5 148 24 300 37 292 3 -2 12 -37 20 -77 18 -105 76 -280 122 -373 80
-160 173 -264 287 -321 49 -25 67 -29 146 -29 75 0 98 4 140 24 75 36 173 141
217 231 82 169 103 277 103 532 0 109 1 198 3 198 2 0 18 -34 37 -75z"/>
<path d="M9072 3925 c0 -16 2 -22 5 -12 2 9 2 23 0 30 -3 6 -5 -1 -5 -18z"/>
<path d="M9062 3850 c0 -14 2 -19 5 -12 2 6 2 18 0 25 -3 6 -5 1 -5 -13z"/>
<path d="M3435 3000 c-22 -5 -101 -17 -175 -27 -185 -25 -826 -25 -1030 0 -74
9 -136 15 -137 13 -6 -5 140 -45 242 -65 351 -70 762 -48 1082 58 88 29 94 36
18 21z"/>
<path d="M4437 2112 c-16 -7 -16 -10 5 -52 54 -106 199 -159 478 -174 l105 -6
-100 19 c-255 47 -401 115 -421 197 -6 25 -30 30 -67 16z"/>
<path d="M5750 2101 c0 -27 -44 -77 -94 -105 -56 -33 -189 -73 -316 -97 l-105
-19 95 6 c52 3 139 12 192 21 l98 16 62 -41 c34 -23 63 -40 64 -39 1 1 10 38
19 81 8 43 24 91 34 105 43 61 36 91 -21 91 -21 0 -28 -5 -28 -19z m-11 -153
c-1 -13 -4 -33 -7 -45 l-7 -22 -39 24 -38 23 38 21 c50 26 54 26 53 -1z"/>
</g>
</svg>
