<?xml version="1.0" standalone="no"?>
<!DOCTYPE svg PUBLIC "-//W3C//DTD SVG 20010904//EN"
 "http://www.w3.org/TR/2001/REC-SVG-20010904/DTD/svg10.dtd">
<svg version="1.0" xmlns="http://www.w3.org/2000/svg"
 width="2000.000000pt" height="2000.000000pt" viewBox="0 0 2000.000000 2000.000000"
 preserveAspectRatio="xMidYMid meet">
<metadata>
Created by potrace 1.14, written by Peter Selinger 2001-2017
</metadata>
<g transform="translate(0.000000,2000.000000) scale(0.100000,-0.100000)"
fill="#000000" stroke="none">
<path d="M2829 17626 c-2 -2 -42 -7 -89 -10 -47 -4 -92 -9 -100 -11 -8 -2 -37
-6 -65 -10 -170 -21 -501 -110 -650 -174 -11 -5 -45 -19 -75 -31 -116 -47
-411 -203 -418 -222 -2 -4 -8 -8 -14 -8 -17 0 -190 -124 -305 -219 -275 -226
-530 -526 -705 -831 -191 -331 -326 -735 -373 -1110 -3 -25 -8 -61 -11 -80
-10 -59 -12 -511 -4 -590 16 -137 21 -174 25 -194 2 -12 7 -37 9 -56 11 -77
39 -192 91 -380 29 -106 108 -298 186 -454 242 -480 590 -871 1044 -1171 77
-50 156 -100 175 -110 257 -131 380 -185 545 -238 79 -26 247 -72 295 -81 14
-3 34 -7 45 -9 11 -3 63 -12 115 -20 89 -15 132 -20 285 -33 78 -7 344 -6 415
1 30 2 80 7 110 10 30 3 64 7 76 9 12 2 45 7 75 11 30 3 70 10 89 15 19 5 51
12 70 15 48 8 208 51 303 81 828 263 1524 909 1863 1729 72 175 157 465 178
608 9 58 17 110 21 137 21 136 35 520 21 600 -2 14 -7 65 -11 114 -3 49 -7 92
-9 95 -2 3 -7 30 -10 59 -3 30 -11 74 -16 98 -6 24 -13 61 -16 81 -10 64 -82
307 -122 414 -67 177 -146 340 -263 539 -132 223 -399 531 -624 717 -49 42
-99 83 -110 92 -11 9 -63 46 -115 82 -327 227 -660 373 -1055 463 -148 34
-191 42 -290 52 -27 3 -61 7 -75 10 -30 7 -504 16 -511 10z m1901 -1231 c302
-80 581 -417 742 -898 22 -65 41 -126 43 -135 2 -9 12 -51 23 -92 11 -41 22
-93 26 -115 3 -22 7 -49 10 -60 30 -147 41 -290 41 -525 0 -176 -7 -320 -19
-387 -2 -10 -7 -40 -10 -68 -18 -125 -88 -379 -134 -485 -60 -138 -141 -279
-202 -350 l-29 -35 -1 60 c-4 283 -120 641 -312 959 -244 403 -622 788 -1021
1040 -42 27 -77 54 -77 60 0 6 13 65 29 131 120 489 359 819 651 900 59 16
179 16 240 0z m-1719 -1010 c24 -5 53 -9 64 -11 116 -16 338 -98 505 -185 257
-135 468 -294 695 -523 125 -126 181 -193 278 -326 42 -58 80 -109 85 -115 4
-5 18 -28 31 -50 157 -265 239 -467 281 -685 24 -122 21 -338 -4 -420 -61
-193 -183 -316 -376 -375 -63 -20 -315 -30 -371 -15 -19 5 -50 11 -69 13 -101
13 -323 92 -480 172 -72 37 -244 141 -296 179 -23 17 -52 38 -64 46 -97 64
-363 310 -475 440 -26 30 -58 67 -71 82 -55 64 -180 246 -248 361 -81 138
-183 382 -212 508 -3 13 -10 42 -15 64 -21 93 -30 273 -16 365 23 168 120 324
245 397 64 38 165 73 231 80 31 3 57 6 59 8 6 5 182 -3 223 -10z m-633 -1695
c204 -307 484 -597 792 -822 103 -75 302 -198 319 -198 5 0 11 -3 13 -8 4 -9
153 -78 260 -121 82 -32 230 -77 288 -86 19 -3 42 -8 50 -10 42 -12 163 -26
237 -26 l56 -1 -34 -30 c-45 -39 -189 -127 -269 -165 -105 -49 -340 -130 -362
-125 -4 1 -19 -3 -33 -8 -14 -5 -38 -12 -53 -15 -15 -2 -50 -9 -79 -14 -29 -6
-81 -13 -115 -17 -35 -3 -66 -8 -69 -10 -6 -3 -237 -17 -294 -17 -48 0 -311
13 -332 17 -10 2 -43 7 -73 11 -70 8 -92 12 -160 25 -30 6 -70 13 -89 16 -18
3 -81 19 -140 35 -794 221 -1225 713 -1000 1144 97 185 313 350 608 462 66 25
254 80 306 89 16 3 31 6 32 8 2 2 14 3 27 2 20 -1 42 -27 114 -136z"/>
<path d="M16760 17627 c-3 -3 -42 -8 -87 -11 -46 -4 -91 -9 -101 -11 -11 -2
-43 -6 -73 -10 -30 -3 -70 -10 -89 -15 -19 -5 -52 -11 -74 -14 -21 -4 -41 -8
-45 -11 -4 -2 -18 -6 -32 -8 -79 -15 -241 -65 -374 -115 -576 -218 -1091 -629
-1442 -1152 -89 -133 -210 -359 -267 -500 -15 -36 -31 -74 -36 -85 -47 -104
-129 -399 -154 -555 -3 -19 -8 -46 -10 -60 -43 -252 -48 -616 -12 -880 94
-669 393 -1271 869 -1743 342 -339 747 -586 1200 -732 61 -21 119 -38 127 -40
8 -2 56 -13 105 -25 50 -12 99 -24 110 -25 11 -2 47 -8 80 -14 152 -26 352
-44 499 -44 78 0 314 12 343 17 10 2 41 7 68 10 79 11 117 17 185 31 14 2 36
7 50 9 67 11 218 54 330 93 69 24 130 45 135 47 19 6 71 27 140 59 722 326
1292 925 1580 1660 37 96 103 303 120 377 2 8 8 35 14 60 5 25 12 59 15 75 3
17 8 39 10 51 2 12 7 45 11 75 4 30 8 56 10 59 11 17 20 217 19 420 0 260 -3
301 -38 505 -21 118 -37 187 -80 346 -41 151 -156 424 -255 604 -248 452 -672
886 -1111 1139 -95 55 -338 174 -410 201 -41 15 -88 33 -105 40 -27 11 -102
34 -255 78 -87 25 -277 62 -375 72 -22 3 -56 7 -75 11 -43 7 -514 17 -520 11z
m-1252 -1232 c166 -45 308 -163 434 -360 91 -141 184 -373 222 -550 2 -5 8
-36 15 -67 14 -66 12 -72 -32 -94 -40 -20 -243 -162 -317 -222 -122 -98 -351
-319 -427 -412 -15 -19 -36 -44 -46 -55 -45 -49 -189 -249 -250 -347 -167
-271 -282 -573 -313 -823 -4 -27 -8 -57 -10 -65 -1 -8 -3 -46 -3 -85 l-1 -70
-31 35 c-117 132 -255 442 -304 680 -52 253 -60 336 -60 610 0 343 32 568 121
860 154 501 433 861 743 960 66 21 192 23 259 5z m1838 -1025 c158 -43 270
-129 339 -261 20 -38 33 -69 29 -69 -3 0 -2 -6 4 -13 30 -36 47 -283 28 -402
-67 -414 -311 -848 -696 -1236 -162 -162 -217 -210 -420 -356 -161 -116 -371
-220 -610 -303 -36 -13 -110 -32 -145 -37 -16 -3 -50 -9 -75 -13 -25 -5 -106
-8 -180 -6 -116 2 -146 6 -213 29 -202 70 -317 203 -362 417 -19 89 -14 293 9
397 59 265 196 559 378 808 107 146 345 406 467 509 363 308 781 516 1111 552
30 4 56 7 58 9 1 1 47 1 101 -1 63 -1 127 -10 177 -24z m476 -1561 c321 -72
608 -216 776 -389 50 -51 121 -163 145 -228 29 -80 32 -219 7 -301 -99 -327
-474 -606 -1028 -765 -64 -19 -135 -37 -157 -40 -22 -4 -47 -8 -55 -11 -22 -6
-69 -14 -116 -21 -23 -2 -53 -7 -65 -9 -13 -3 -58 -8 -99 -11 -41 -3 -88 -8
-105 -10 -103 -12 -472 0 -581 20 -11 2 -41 7 -69 10 -302 42 -670 191 -839
340 l-29 26 54 1 c405 4 900 215 1319 563 117 97 139 118 247 225 81 81 123
126 236 261 38 44 173 236 211 299 21 34 41 61 46 61 5 0 50 -9 102 -21z"/>
<path d="M9808 14115 c-2 -1 -64 -5 -138 -9 -74 -3 -148 -8 -165 -10 -16 -2
-61 -7 -100 -11 -38 -4 -90 -9 -115 -11 -25 -2 -52 -7 -60 -9 -8 -3 -35 -7
-60 -10 -25 -3 -56 -7 -70 -10 -14 -3 -41 -7 -60 -10 -28 -5 -198 -37 -260
-50 -215 -43 -707 -197 -885 -276 -22 -9 -89 -39 -150 -64 -107 -46 -358 -171
-480 -238 -157 -87 -428 -260 -552 -353 -28 -22 -61 -46 -73 -54 -27 -19 -51
-38 -159 -124 -287 -230 -607 -547 -821 -815 -19 -24 -47 -58 -61 -75 -65 -78
-185 -245 -281 -391 -189 -286 -340 -568 -489 -910 -86 -199 -237 -652 -265
-795 -3 -14 -9 -38 -14 -55 -5 -16 -11 -41 -14 -55 -2 -14 -9 -45 -15 -70 -5
-25 -12 -56 -15 -70 -2 -14 -9 -47 -15 -75 -18 -94 -60 -380 -66 -455 -4 -41
-8 -86 -11 -100 -24 -151 -24 -857 1 -1010 2 -14 6 -56 10 -93 3 -37 8 -76 10
-85 1 -9 6 -44 9 -77 4 -33 14 -98 22 -145 8 -47 17 -96 19 -110 2 -14 10 -57
19 -95 8 -39 17 -82 20 -95 2 -14 12 -56 21 -95 9 -38 18 -74 19 -80 2 -5 8
-30 15 -55 8 -25 14 -49 15 -55 11 -52 109 -358 148 -460 43 -110 96 -241 120
-295 11 -25 29 -65 40 -90 126 -284 407 -761 580 -985 115 -148 224 -285 263
-329 305 -345 573 -595 900 -839 116 -87 351 -248 417 -286 18 -10 85 -49 148
-86 186 -109 455 -240 680 -332 109 -45 366 -137 415 -149 6 -2 55 -17 110
-34 89 -27 338 -91 405 -104 14 -3 84 -16 155 -30 72 -13 154 -27 184 -31 30
-3 57 -8 60 -9 3 -2 38 -7 76 -10 39 -4 84 -9 100 -12 30 -5 48 -6 240 -21
193 -14 753 -7 865 11 14 3 59 7 100 11 41 3 102 10 135 15 33 5 80 12 105 14
25 3 81 12 125 20 44 9 94 18 110 21 17 3 62 12 100 21 39 9 81 18 95 20 14 3
43 10 65 16 22 5 47 12 55 14 8 1 58 15 110 29 917 254 1774 752 2446 1422
124 123 232 239 294 313 11 14 31 36 43 50 39 43 141 171 203 255 32 44 62 82
65 85 29 25 287 435 373 593 85 157 269 545 280 592 1 6 9 26 18 45 95 219
264 812 293 1030 3 25 8 52 10 60 2 8 7 35 10 60 3 25 8 52 10 60 2 8 7 40 10
70 3 30 8 66 10 80 4 23 6 47 20 180 25 249 25 886 0 1018 -1 9 -6 53 -10 97
-3 44 -11 102 -16 128 -5 26 -8 51 -7 55 6 24 -67 394 -118 596 -44 178 -166
561 -204 643 -11 24 -20 45 -20 48 0 29 -169 391 -278 595 -70 132 -289 489
-312 510 -3 3 -39 52 -80 110 -308 436 -749 880 -1210 1222 -688 510 -1537
873 -2365 1013 -16 2 -41 7 -55 9 -14 3 -45 8 -70 11 -25 3 -54 7 -65 9 -11 2
-49 7 -85 11 -36 4 -72 8 -80 10 -8 2 -55 6 -105 10 -49 3 -112 9 -140 11 -55
5 -552 13 -557 9z m-813 -5765 c-3 -64 -7 -126 -9 -136 -2 -10 -7 -41 -10 -69
-12 -87 -16 -108 -36 -190 -86 -367 -259 -685 -509 -935 -158 -159 -275 -244
-451 -327 -553 -263 -1187 -143 -1644 312 -56 56 -123 130 -149 166 -27 35
-54 71 -60 79 -54 67 -173 290 -216 405 -13 33 -27 69 -31 80 -31 71 -79 260
-95 370 -3 23 -7 51 -10 64 -10 51 -24 282 -18 293 2 4 733 7 1624 7 l1620 -1
-6 -118z m5236 115 c12 -4 15 -17 13 -63 -5 -118 -16 -220 -35 -322 -25 -140
-24 -136 -45 -205 -10 -33 -19 -64 -20 -70 -7 -39 -86 -228 -130 -316 -134
-263 -308 -475 -518 -629 -44 -33 -87 -65 -94 -71 -7 -6 -64 -37 -125 -69
-125 -64 -262 -114 -372 -136 -11 -2 -31 -6 -45 -9 -178 -36 -440 -21 -628 36
-255 77 -452 198 -653 398 -117 118 -148 155 -232 280 -114 167 -250 482 -286
661 -6 30 -14 66 -16 80 -25 118 -34 189 -41 326 l-6 111 1609 2 c884 0 1615
-1 1624 -4z m-6727 -2702 c-2 -43 43 -152 86 -207 83 -109 190 -187 375 -277
104 -50 371 -148 445 -163 14 -3 40 -9 58 -15 17 -5 32 -8 32 -6 0 3 11 0 25
-5 14 -5 36 -12 48 -14 12 -3 56 -12 97 -21 41 -9 91 -18 110 -21 19 -3 42 -7
50 -9 8 -3 37 -7 64 -10 28 -4 53 -8 56 -10 4 -2 31 -7 61 -10 57 -6 106 -12
167 -19 20 -3 69 -8 107 -11 39 -3 81 -8 95 -10 170 -26 1037 -26 1240 0 19 3
64 7 100 10 86 7 221 23 261 30 9 2 40 6 70 10 95 11 309 55 469 95 419 105
750 272 883 445 51 67 88 149 90 201 l2 44 121 0 c140 0 138 1 124 -84 -31
-192 -140 -351 -340 -498 -41 -30 -95 -65 -120 -78 -25 -14 -52 -29 -60 -36
-24 -17 -215 -100 -325 -139 -156 -57 -464 -137 -615 -161 -19 -3 -37 -7 -40
-9 -3 -2 -33 -7 -65 -10 -33 -4 -62 -9 -65 -10 -3 -2 -33 -7 -65 -10 -33 -4
-62 -9 -65 -10 -3 -2 -39 -6 -80 -10 -41 -4 -82 -9 -91 -10 -8 -2 -53 -6 -100
-10 -46 -4 -100 -9 -119 -10 -227 -24 -977 -24 -1175 0 -16 2 -64 6 -105 9
-127 11 -178 16 -325 37 -38 5 -95 14 -125 19 -30 5 -70 12 -87 15 -80 13
-102 17 -159 30 -34 8 -73 16 -85 19 -13 2 -53 12 -89 21 -36 9 -72 18 -80 20
-58 13 -244 74 -340 112 -300 118 -504 255 -627 417 -72 96 -118 198 -129 288
-3 24 -7 49 -9 56 -3 6 -2 19 1 27 5 12 29 15 128 15 l122 0 -2 -27z"/>
<path d="M15800 10228 c26 -106 57 -233 69 -283 11 -49 39 -157 61 -240 39
-145 98 -420 120 -555 5 -36 12 -74 14 -85 2 -11 7 -45 11 -75 4 -30 9 -63 11
-72 1 -10 6 -50 9 -90 3 -40 8 -82 10 -93 5 -21 10 -88 22 -260 14 -208 6
-1217 -12 -1530 -7 -116 -16 -247 -20 -295 -2 -25 -6 -72 -9 -105 -3 -33 -7
-76 -10 -95 -3 -19 -8 -57 -11 -85 -3 -27 -8 -63 -10 -80 -3 -16 -7 -48 -10
-70 -3 -22 -12 -78 -20 -125 -8 -47 -17 -103 -20 -125 -3 -22 -8 -46 -11 -54
-2 -8 -7 -30 -10 -50 -5 -27 -68 -285 -88 -361 -77 -279 -182 -545 -334 -845
-351 -693 -576 -975 -925 -1159 -99 -52 -256 -106 -357 -122 -14 -2 -36 -6
-50 -8 -14 -3 -31 -5 -37 -5 -19 -1 -16 -13 11 -44 14 -16 40 -47 58 -69 220
-271 524 -481 772 -534 12 -3 41 -9 66 -14 46 -9 288 -7 327 3 101 26 158 45
220 73 201 91 397 259 572 491 61 82 151 218 151 230 0 3 6 14 14 22 23 26
138 257 200 401 66 155 171 463 215 630 57 217 128 562 146 709 4 30 8 63 11
74 2 11 6 41 9 66 3 25 7 62 10 81 7 60 14 132 20 200 3 36 7 85 10 110 5 52
16 227 18 317 1 34 5 64 8 68 19 19 220 -404 244 -515 2 -8 10 -40 19 -70 12
-46 35 -158 52 -257 2 -13 6 -35 9 -50 2 -16 7 -39 9 -53 5 -24 10 -59 21
-137 3 -21 7 -51 10 -68 2 -16 7 -50 10 -75 3 -25 8 -61 11 -80 3 -19 7 -136
9 -260 5 -246 -4 -337 -51 -555 -16 -78 -63 -224 -90 -282 -7 -17 -14 -34 -14
-38 0 -17 -148 -302 -190 -365 -6 -8 -13 -22 -17 -30 -17 -37 -166 -252 -211
-306 -195 -230 -413 -374 -717 -475 l-69 -23 69 -32 c113 -52 239 -91 385
-119 135 -26 327 -26 480 0 495 83 918 447 1139 978 39 95 86 233 95 279 2 13
11 50 19 83 9 33 19 80 22 105 3 25 8 52 10 60 2 8 7 42 10 75 3 33 8 74 10
90 6 41 6 374 1 405 -3 14 -7 56 -11 93 -3 37 -8 78 -11 90 -2 12 -6 39 -10
62 -10 71 -44 217 -76 325 -16 58 -34 121 -40 140 -5 19 -12 42 -15 50 -3 8
-32 92 -63 185 -74 218 -256 707 -290 780 -5 11 -27 65 -49 121 -74 188 -224
540 -320 747 -17 37 -44 96 -61 131 -67 147 -242 496 -251 501 -5 4 -9 12 -9
20 0 7 -15 40 -34 72 -147 254 -215 385 -227 433 -7 30 -14 57 -14 60 -1 3 -5
23 -9 45 -18 90 -102 382 -161 561 -218 657 -517 1178 -867 1512 l-35 33 47
-193z"/>
<path d="M4163 10338 c-104 -106 -126 -132 -209 -243 -41 -55 -78 -104 -82
-110 -90 -116 -293 -502 -395 -750 -56 -137 -189 -514 -202 -571 -2 -11 -24
-94 -49 -186 -24 -92 -47 -180 -49 -195 -14 -85 -38 -143 -117 -283 -157 -277
-328 -613 -450 -880 -29 -63 -66 -144 -82 -180 -73 -158 -243 -566 -332 -795
-54 -137 -102 -259 -107 -270 -29 -65 -205 -570 -245 -705 -19 -63 -39 -126
-44 -140 -5 -14 -12 -36 -15 -50 -2 -14 -16 -74 -30 -135 -14 -60 -28 -130
-31 -154 -3 -25 -7 -47 -9 -50 -2 -4 -6 -42 -10 -86 -4 -44 -9 -89 -11 -100
-6 -26 -5 -352 0 -390 2 -16 7 -57 11 -90 14 -129 31 -216 71 -362 19 -70 41
-141 48 -158 7 -16 22 -52 32 -80 49 -133 195 -379 287 -483 90 -101 116 -127
191 -191 411 -348 951 -431 1463 -225 150 61 148 56 51 88 -95 32 -299 129
-373 178 -227 150 -359 300 -554 628 -97 164 -131 228 -188 360 -38 89 -87
230 -97 282 -2 13 -11 53 -20 89 -8 36 -18 88 -21 115 -4 27 -10 76 -15 109
-11 74 -10 419 0 500 5 33 11 85 14 115 4 30 13 98 21 150 8 52 17 113 20 135
11 71 14 88 34 190 28 142 29 146 40 185 47 175 130 371 218 517 25 40 45 73
46 73 2 0 3 -28 3 -62 1 -74 14 -307 20 -350 2 -17 6 -64 9 -107 3 -42 7 -85
9 -96 2 -11 7 -51 11 -88 3 -37 8 -76 10 -85 1 -9 6 -39 9 -67 4 -27 11 -77
16 -110 5 -33 12 -78 15 -100 4 -22 8 -47 10 -55 2 -8 7 -31 10 -50 51 -305
164 -705 286 -1012 231 -585 540 -995 900 -1197 55 -31 194 -86 241 -95 13 -3
48 -10 78 -16 59 -12 201 -14 265 -5 69 11 79 13 125 25 264 69 523 255 769
553 35 42 62 80 59 83 -3 3 -23 7 -44 10 -124 14 -260 57 -395 124 -281 140
-494 364 -722 759 -396 688 -576 1181 -692 1901 -2 14 -6 39 -9 55 -4 27 -20
142 -31 235 -2 19 -7 60 -10 90 -3 30 -7 78 -10 105 -41 434 -54 1640 -21
1995 3 25 7 74 11 110 3 36 8 76 10 90 2 14 7 48 10 75 3 28 7 61 10 75 2 14
7 45 10 70 2 25 7 56 10 70 3 14 7 39 9 55 18 127 111 535 157 684 10 34 21
73 23 85 28 143 100 438 112 458 3 4 1 8 -4 8 -4 0 -40 -33 -79 -72z"/>
</g>
</svg>
