<?xml version="1.0" encoding="utf-8"?>
<!-- Generator: Adobe Illustrator 24.0.2, SVG Export Plug-In . SVG Version: 6.00 Build 0)  -->
<svg version="1.1" id="Layer_1" xmlns="http://www.w3.org/2000/svg" xmlns:xlink="http://www.w3.org/1999/xlink" x="0px" y="0px"
	 viewBox="0 0 170.76 170.35" style="enable-background:new 0 0 170.76 170.35;" xml:space="preserve">
<style type="text/css">
	.st0{fill:#C1C1C1;}
	.st1{fill:#EDEDED;}
	.st2{fill:#40B57A;}
	.st3{fill:#57FFAF;}
	.st4{fill:#C0FCDB;}
</style>
<g>
	<g>
		<g>
			<path class="st0" d="M169.38,106.22c0-34.87-37.61-63.14-84-63.14c-46.39,0-84,28.27-84,63.14c0,34.87,37.61,63.14,84,63.14
				C131.77,169.35,169.38,141.08,169.38,106.22z"/>
			<rect x="1.39" y="96.13" class="st0" width="167.75" height="10.07"/>
		</g>
		<path class="st1" d="M169.38,95.97c0-34.87-37.61-63.14-84-63.14c-46.39,0-84,28.27-84,63.14c0,34.87,37.61,63.14,84,63.14
			C131.77,159.11,169.38,130.84,169.38,95.97z"/>
	</g>
	<g>
		<g>
			<path class="st2" d="M158.07,94.24c0,30.7-32.48,55.59-72.54,55.59c-40.06,0-72.54-24.89-72.54-55.59
				c0-30.7,32.48-55.59,72.54-55.59C125.59,38.65,158.07,63.54,158.07,94.24z"/>
			<rect x="12.98" y="85.55" class="st2" width="145.08" height="8.56"/>
		</g>
		<g>
			<ellipse class="st3" cx="85.47" cy="84.44" rx="72.54" ry="54.15"/>
			<path class="st4" d="M133.34,56.1c0,7.71-8.4,13.95-18.76,13.95c-10.36,0-18.76-6.25-18.76-13.95c0-7.71,8.4-13.96,18.76-13.96
				C124.94,42.15,133.34,48.39,133.34,56.1z"/>
		</g>
	</g>
</g>
</svg>
