<?xml version="1.0" encoding="utf-8"?>
<!-- Generator: Adobe Illustrator 24.0.2, SVG Export Plug-In . SVG Version: 6.00 Build 0)  -->
<svg version="1.1" id="Layer_1" xmlns="http://www.w3.org/2000/svg" xmlns:xlink="http://www.w3.org/1999/xlink" x="0px" y="0px"
	 viewBox="0 0 196.2 50" style="enable-background:new 0 0 196.2 50;" xml:space="preserve">
<style type="text/css">
	.st0{display:none;}
	.st1{display:inline;fill:#FF9900;}
	.st2{fill:#FFFFFF;}
</style>
<g id="Background" class="st0">
	<rect x="-578.9" y="-158" class="st1" width="1354" height="366"/>
</g>
<g>
	<path class="st2" d="M0.8,42.7v-3.5c1.1,0,1.9-0.1,2.6-0.2c0.7-0.1,1.2-0.4,1.5-0.8c0.4-0.4,0.6-0.9,0.7-1.6
		C5.8,36,5.9,35.1,5.9,34V7.3h4.8v26.8c0,2-0.2,3.6-0.6,4.9c-0.4,1.3-1.2,2.2-2.3,2.8s-2.6,0.9-4.6,0.9H0.8z"/>
	<path class="st2" d="M19.2,42.2c-1,0-1.7-0.3-2.3-0.8c-0.5-0.5-0.9-1.2-1.1-1.9c-0.2-0.8-0.3-1.6-0.3-2.3v-20h4.6v18.6
		c0,0.9,0.1,1.6,0.4,2.1c0.3,0.5,0.8,0.7,1.6,0.7c0.5,0,1-0.2,1.6-0.4c0.6-0.3,1.1-0.7,1.6-1.1V17.2h4.6v24.7h-4.6v-2.4
		c-0.8,0.8-1.7,1.4-2.7,2C21.5,42,20.4,42.2,19.2,42.2z"/>
	<path class="st2" d="M40.2,42.2c-2,0-3.6-0.6-4.9-1.9c-1.2-1.3-1.9-2.9-2.1-5l3.8-1.2c0.2,1.6,0.6,2.7,1.2,3.5
		c0.5,0.8,1.3,1.2,2.4,1.2c0.8,0,1.5-0.2,1.9-0.7c0.4-0.5,0.6-1.1,0.6-1.9c0-0.7-0.2-1.4-0.5-1.9c-0.3-0.6-0.8-1.2-1.5-1.8l-4.2-3.6
		c-0.9-0.7-1.6-1.6-2.2-2.5c-0.6-0.9-0.9-2.1-0.9-3.5c0-1.3,0.3-2.4,0.8-3.3c0.5-0.9,1.3-1.6,2.2-2c1-0.5,2.1-0.7,3.4-0.7
		c2,0,3.5,0.6,4.5,1.9c1,1.3,1.6,2.8,1.8,4.6l-3.1,1.2c-0.1-0.9-0.3-1.6-0.5-2.2c-0.2-0.6-0.5-1.1-0.9-1.5c-0.4-0.4-0.9-0.5-1.6-0.5
		c-0.7,0-1.3,0.2-1.8,0.7c-0.4,0.5-0.7,1.1-0.7,1.8c0,0.4,0.1,0.8,0.3,1.3c0.2,0.4,0.5,0.8,1,1.2l4.4,4c0.6,0.5,1.2,1.1,1.7,1.7
		c0.5,0.6,1,1.3,1.3,2.1c0.3,0.8,0.5,1.7,0.5,2.8c0,1.4-0.3,2.6-0.9,3.5s-1.4,1.6-2.4,2.1C42.8,42,41.6,42.2,40.2,42.2z"/>
	<path class="st2" d="M57,42.2c-1.3,0-2.3-0.2-3.1-0.7c-0.8-0.5-1.4-1.2-1.7-2s-0.5-1.9-0.5-3.1V20.2h-2.6v-3h2.6V10h4.6v7.2h4v3h-4
		V36c0,1,0.2,1.7,0.5,2.1c0.3,0.4,0.9,0.6,1.8,0.6c0.2,0,0.5,0,0.8,0c0.3,0,0.6-0.1,0.9-0.1V42c-0.6,0.1-1.1,0.2-1.6,0.2
		C58.1,42.2,57.6,42.2,57,42.2z"/>
	<path class="st2" d="M73.7,41.9V7.3h8.6c2.1,0,3.7,0.4,5,1.1c1.2,0.8,2.1,1.8,2.7,3.3c0.6,1.4,0.9,3.1,0.9,5.2c0,1.8-0.3,3.4-1,4.7
		c-0.6,1.3-1.6,2.4-2.8,3.1c-1.3,0.7-2.8,1.1-4.7,1.1h-3.8v16.1H73.7z M78.6,22.3h2.2c1.4,0,2.5-0.2,3.3-0.5
		c0.8-0.3,1.4-0.9,1.7-1.6c0.3-0.8,0.5-1.9,0.5-3.3c0-1.7-0.1-2.9-0.4-3.8c-0.2-0.9-0.7-1.5-1.5-1.8s-2-0.5-3.6-0.5h-2.3V22.3z"/>
	<path class="st2" d="M94,41.9V17.2h4.6v3.5c0.9-1.5,1.8-2.5,2.7-3s1.8-0.8,2.7-0.8c0.1,0,0.2,0,0.3,0s0.2,0,0.4,0v5
		c-0.3-0.1-0.7-0.3-1.2-0.4c-0.4-0.1-0.9-0.1-1.3-0.1c-0.7,0-1.4,0.2-1.9,0.5c-0.6,0.3-1.2,1-1.7,1.9v18H94z"/>
	<path class="st2" d="M114.4,42.2c-1.9,0-3.4-0.4-4.5-1.1c-1.1-0.8-1.8-1.9-2.2-3.3c-0.4-1.5-0.6-3.3-0.6-5.4v-5.6
		c0-2.2,0.2-4,0.6-5.5s1.2-2.5,2.2-3.3c1.1-0.7,2.5-1.1,4.4-1.1c2.1,0,3.6,0.4,4.6,1.3c1,0.9,1.6,2.1,1.9,3.7
		c0.3,1.6,0.5,3.5,0.5,5.8v2h-9.7v5c0,1,0.1,1.8,0.3,2.4c0.2,0.6,0.5,1.1,0.9,1.4c0.4,0.3,0.9,0.4,1.6,0.4c0.7,0,1.2-0.2,1.6-0.5
		c0.4-0.3,0.6-0.8,0.7-1.4c0.1-0.6,0.2-1.3,0.2-2.2v-1.5h4.4v0.9c0,2.5-0.5,4.4-1.6,5.8C118.7,41.5,116.9,42.2,114.4,42.2z
		 M111.7,27.2h5.2v-2.2c0-1-0.1-1.9-0.2-2.6c-0.1-0.7-0.3-1.2-0.7-1.6c-0.4-0.4-0.9-0.5-1.7-0.5c-0.7,0-1.3,0.2-1.7,0.5
		c-0.4,0.3-0.6,0.9-0.8,1.7s-0.2,1.9-0.2,3.4V27.2z"/>
	<path class="st2" d="M131.2,42.2c-2,0-3.6-0.6-4.9-1.9c-1.2-1.3-1.9-2.9-2.1-5l3.8-1.2c0.2,1.6,0.6,2.7,1.2,3.5
		c0.5,0.8,1.3,1.2,2.4,1.2c0.8,0,1.5-0.2,1.9-0.7c0.4-0.5,0.6-1.1,0.6-1.9c0-0.7-0.2-1.4-0.5-1.9c-0.3-0.6-0.8-1.2-1.5-1.8l-4.2-3.6
		c-0.9-0.7-1.6-1.6-2.2-2.5c-0.6-0.9-0.9-2.1-0.9-3.5c0-1.3,0.3-2.4,0.8-3.3c0.5-0.9,1.3-1.6,2.2-2c1-0.5,2.1-0.7,3.4-0.7
		c2,0,3.5,0.6,4.5,1.9c1,1.3,1.6,2.8,1.8,4.6l-3.1,1.2c-0.1-0.9-0.3-1.6-0.5-2.2c-0.2-0.6-0.5-1.1-0.9-1.5c-0.4-0.4-0.9-0.5-1.6-0.5
		c-0.7,0-1.3,0.2-1.8,0.7c-0.4,0.5-0.7,1.1-0.7,1.8c0,0.4,0.1,0.8,0.3,1.3c0.2,0.4,0.5,0.8,1,1.2l4.4,4c0.6,0.5,1.2,1.1,1.7,1.7
		c0.5,0.6,1,1.3,1.3,2.1s0.5,1.7,0.5,2.8c0,1.4-0.3,2.6-0.9,3.5c-0.6,0.9-1.4,1.6-2.4,2.1C133.8,42,132.6,42.2,131.2,42.2z"/>
	<path class="st2" d="M147.2,42.2c-2,0-3.6-0.6-4.9-1.9c-1.2-1.3-1.9-2.9-2.1-5l3.8-1.2c0.2,1.6,0.6,2.7,1.2,3.5s1.3,1.2,2.4,1.2
		c0.8,0,1.5-0.2,1.9-0.7c0.4-0.5,0.6-1.1,0.6-1.9c0-0.7-0.2-1.4-0.5-1.9c-0.3-0.6-0.8-1.2-1.5-1.8l-4.2-3.6
		c-0.9-0.7-1.6-1.6-2.2-2.5c-0.6-0.9-0.9-2.1-0.9-3.5c0-1.3,0.3-2.4,0.8-3.3c0.5-0.9,1.3-1.6,2.2-2c1-0.5,2.1-0.7,3.3-0.7
		c2,0,3.5,0.6,4.5,1.9c1,1.3,1.6,2.8,1.8,4.6l-3.1,1.2c-0.1-0.9-0.3-1.6-0.5-2.2c-0.2-0.6-0.5-1.1-0.9-1.5c-0.4-0.4-0.9-0.5-1.6-0.5
		c-0.7,0-1.3,0.2-1.8,0.7c-0.4,0.5-0.7,1.1-0.7,1.8c0,0.4,0.1,0.8,0.3,1.3s0.5,0.8,1,1.2l4.4,4c0.6,0.5,1.2,1.1,1.7,1.7
		c0.5,0.6,1,1.3,1.3,2.1s0.5,1.7,0.5,2.8c0,1.4-0.3,2.6-0.9,3.5c-0.6,0.9-1.4,1.6-2.4,2.1C149.8,42,148.6,42.2,147.2,42.2z"/>
	<path class="st2" d="M167.9,41.9V7.3h4.7v34.6H167.9z"/>
	<path class="st2" d="M184.4,42.2c-1.3,0-2.3-0.2-3.1-0.7s-1.4-1.2-1.7-2s-0.5-1.9-0.5-3.1V20.2h-2.6v-3h2.6V10h4.6v7.2h4v3h-4V36
		c0,1,0.2,1.7,0.5,2.1c0.3,0.4,0.9,0.6,1.8,0.6c0.2,0,0.5,0,0.8,0c0.3,0,0.6-0.1,0.9-0.1V42c-0.6,0.1-1.1,0.2-1.6,0.2
		C185.5,42.2,185,42.2,184.4,42.2z"/>
	<path class="st2" d="M190.8,41.9v-5.1h4.6v5.1H190.8z"/>
</g>
</svg>
