<?xml version="1.0" encoding="utf-8"?>
<!-- Generator: Adobe Illustrator 24.0.2, SVG Export Plug-In . SVG Version: 6.00 Build 0)  -->
<svg version="1.1" id="Layer_1" xmlns="http://www.w3.org/2000/svg" xmlns:xlink="http://www.w3.org/1999/xlink" x="0px" y="0px"
	 viewBox="0 0 64 64" style="enable-background:new 0 0 64 64;" xml:space="preserve">
<style type="text/css">
	.st0{fill:#FFFFFF;}
</style>
<g>
	<title></title>
	<path class="st0" d="M32.1,45.2c7.3,0,13.1-5.7,13.1-13.1S39.5,19,32.1,19S19,24.7,19,32.1S24.8,45.2,32.1,45.2z"/>
	<path class="st0" d="M32.1,13.8c1.6,0,2.6-1,2.6-2.6V3.5c0-1.6-1-2.6-2.6-2.6c-1.6-0.2-2.8,1-2.8,2.6v7.7
		C29.3,12.9,30.5,13.8,32.1,13.8z"/>
	<path class="st0" d="M15.3,19.2c1,1,2.8,0.8,3.6-0.2c0.8-1,0.8-2.4,0-3.4l-5.3-5.7c-1-1-2.8-0.6-3.6,0.4c-0.8,1-0.8,2.4,0,3.4
		L15.3,19.2z"/>
	<path class="st0" d="M3.4,34.6h7.7c1.6,0,2.6-1,2.6-2.6s-1-2.6-2.6-2.6H3.4c-1.6,0-2.6,1-2.6,2.6C0.8,33.7,1.8,34.6,3.4,34.6z"/>
	<path class="st0" d="M15.3,45.2l-5.6,5.5c-0.8,1-1.2,2.6-0.2,3.6s2.6,1.4,3.6,0.2l0.4-0.2l5.5-5.5c1-1,0.8-2.8-0.2-3.6
		C18,44.4,16.4,44.4,15.3,45.2z"/>
	<path class="st0" d="M32.1,50.3c-1.6,0-2.6,1-2.6,2.6v7.7c0,1.6,1,2.6,2.6,2.6s2.6-1,2.6-2.6v-7.7C34.7,51.5,33.5,50.3,32.1,50.3z"
		/>
	<path class="st0" d="M48.7,45.2c-1-1-2.8-0.8-3.6,0.2s-0.8,2.4,0,3.4l5.5,5.5c1,1,2.8,0.8,3.6-0.2s0.8-2.4,0-3.4L48.7,45.2z"/>
	<path class="st0" d="M50.3,32.1c0,1.6,1,2.6,2.6,2.6h7.7c1.6,0,2.6-1,2.6-2.6c0-1.6-1-2.6-2.6-2.6h-7.7
		C51.3,29.5,50.3,30.5,50.3,32.1z"/>
	<path class="st0" d="M47,19.8c0.8,0,1.4-0.2,1.8-0.8l5.5-5.5c1-0.8,0.6-2.8-0.4-3.6s-2.4-0.8-3.4,0L45,15.4c-1,1-1,2.6,0,3.6
		C45.4,19.6,46.2,20.2,47,19.8L47,19.8z"/>
</g>
</svg>
