<?xml version="1.0" encoding="utf-8"?>
<!-- Generator: Adobe Illustrator 24.0.2, SVG Export Plug-In . SVG Version: 6.00 Build 0)  -->
<svg version="1.1" id="Layer_1" xmlns="http://www.w3.org/2000/svg" xmlns:xlink="http://www.w3.org/1999/xlink" x="0px" y="0px"
	 viewBox="0 0 64 64" style="enable-background:new 0 0 64 64;" xml:space="preserve">
<style type="text/css">
	.st0{fill:none;stroke:#FFFFFF;stroke-width:2.6313;stroke-miterlimit:10;}
	.st1{fill:#FFFFFF;}
</style>
<g>
	<title></title>
	<path class="st0" d="M8.7,56L55.5,9.2"/>
	<path class="st1" d="M61.8,54.6c-7,1.8-14.2-2.4-16.1-9.5c-1.1-3.8-0.1-8,2.2-11.2c0.4-0.5,0.3-1.4-0.3-1.8
		c-0.3-0.3-0.7-0.3-1.1-0.3C38.2,33.9,33.1,42.6,35.2,51s10.7,13.6,19.2,11.4c3.6-0.9,6.6-3,8.8-5.9c0.4-0.5,0.3-1.4-0.3-1.8
		C62.5,54.6,62.1,54.5,61.8,54.6L61.8,54.6z"/>
	<path class="st1" d="M16.4,23.4c3.7,0,6.6-2.9,6.6-6.6s-2.9-6.6-6.6-6.6s-6.6,2.9-6.6,6.6S12.7,23.4,16.4,23.4z"/>
	<path class="st1" d="M16.4,7.6c0.8,0,1.3-0.5,1.3-1.3V2.4c0-0.8-0.5-1.3-1.3-1.3C15.6,1,15,1.6,15,2.4v3.9
		C15,7.1,15.6,7.6,16.4,7.6z"/>
	<path class="st1" d="M7.9,10.3c0.5,0.5,1.4,0.4,1.8-0.1s0.4-1.2,0-1.7L7,5.6C6.5,5.1,5.6,5.3,5.2,5.8C4.8,6.3,4.8,7,5.2,7.5
		L7.9,10.3z"/>
	<path class="st1" d="M1.9,18.1h3.9c0.8,0,1.3-0.5,1.3-1.3s-0.5-1.3-1.3-1.3H1.9c-0.8,0-1.3,0.5-1.3,1.3C0.6,17.6,1.1,18.1,1.9,18.1
		z"/>
	<path class="st1" d="M7.9,23.4l-2.8,2.8C4.7,26.7,4.5,27.5,5,28s1.3,0.7,1.8,0.1L7,28l2.8-2.8c0.5-0.5,0.4-1.4-0.1-1.8
		C9.3,23,8.5,23,7.9,23.4z"/>
	<path class="st1" d="M16.4,26c-0.8,0-1.3,0.5-1.3,1.3v3.9c0,0.8,0.5,1.3,1.3,1.3c0.8,0,1.3-0.5,1.3-1.3v-3.9
		C17.7,26.6,17.1,26,16.4,26z"/>
	<path class="st1" d="M24.8,23.4c-0.5-0.5-1.4-0.4-1.8,0.1s-0.4,1.2,0,1.7l2.8,2.8c0.5,0.5,1.4,0.4,1.8-0.1s0.4-1.2,0-1.7L24.8,23.4
		z"/>
	<path class="st1" d="M25.6,16.8c0,0.8,0.5,1.3,1.3,1.3h3.9c0.8,0,1.3-0.5,1.3-1.3c0-0.8-0.5-1.3-1.3-1.3h-3.9
		C26.1,15.5,25.6,16,25.6,16.8z"/>
	<path class="st1" d="M23.9,10.6c0.4,0,0.7-0.1,0.9-0.4l2.8-2.8C28.1,7,27.9,6,27.4,5.6s-1.2-0.4-1.7,0l-2.8,2.8
		c-0.5,0.5-0.5,1.3,0,1.8C23.1,10.5,23.5,10.8,23.9,10.6L23.9,10.6z"/>
</g>
</svg>
