<?xml version="1.0" encoding="utf-8"?>
<!-- Generator: Adobe Illustrator 24.0.2, SVG Export Plug-In . SVG Version: 6.00 Build 0)  -->
<svg version="1.1" id="Capa_1" xmlns="http://www.w3.org/2000/svg" xmlns:xlink="http://www.w3.org/1999/xlink" x="0px" y="0px"
	 viewBox="0 0 27.2 27.2" style="enable-background:new 0 0 27.2 27.2;" xml:space="preserve">
<style type="text/css">
	.st0{fill:none;stroke:#FFFFFF;stroke-miterlimit:10;}
</style>
<g>
	<path class="st0" d="M13.6,0.4c-7.3,0-13.2,6-13.2,13.2s5.9,13.2,13.2,13.2S26.8,21,26.8,13.6C26.8,6.3,20.9,0.4,13.6,0.4z
		 M13.6,25C7.3,25,2.2,19.9,2.2,13.6S7.3,2.2,13.6,2.2S25,7.3,25,13.6S19.9,25,13.6,25z"/>
	<path class="st0" d="M20.4,13.4h-6.3V6.5c0-0.5-0.4-0.9-0.9-0.9S12.3,6,12.3,6.5v7.8c0,0.5,0.4,0.9,0.9,0.9h7.2
		c0.5,0,0.9-0.4,0.9-0.9S20.9,13.4,20.4,13.4z"/>
</g>
</svg>
