<?xml version="1.0" encoding="utf-8"?>
<!-- Generator: Adobe Illustrator 24.0.2, SVG Export Plug-In . SVG Version: 6.00 Build 0)  -->
<svg version="1.1" id="Layer_1" xmlns="http://www.w3.org/2000/svg" xmlns:xlink="http://www.w3.org/1999/xlink" x="0px" y="0px"
	 viewBox="0 0 27.3 27.2" style="enable-background:new 0 0 27.3 27.2;" xml:space="preserve">
<style type="text/css">
	.st0{fill:#FFFFFF;}
	.st1{fill:none;stroke:#FFFFFF;stroke-width:0.7482;stroke-miterlimit:10;}
</style>
<g>
	<g>
		<g>
			<g id="XMLID_1_">
				<g>
					<path class="st0" d="M26.9,16.1v0.8h-0.1C26.8,16.6,26.8,16.3,26.9,16.1L26.9,16.1z"/>
					<path class="st0" d="M26.9,16L26.9,16C26.9,16.1,26.9,16.1,26.9,16C26.9,16.1,26.9,16.1,26.9,16z"/>
					<path class="st0" d="M26.9,15.3V16l0,0c0-0.3-0.1-0.5-0.1-0.8h0.1V15.3z"/>
					<path class="st0" d="M25.1,11.9V15c0-0.1,0-0.2,0-0.3V11.9L25.1,11.9z"/>
					<path class="st0" d="M25.1,10.3v1.6l0,0V10.3L25.1,10.3z"/>
					<path class="st0" d="M25.1,8.9v1.4l0,0V8.9L25.1,8.9L25.1,8.9z"/>
					<path class="st0" d="M25.1,15L25.1,15v-0.3C25.1,14.7,25.1,14.9,25.1,15z"/>
					<path class="st0" d="M25.1,8.9v1.3L25,10.1C25.1,9.7,25.1,9.3,25.1,8.9z"/>
					<path class="st0" d="M25.1,8.9L25.1,8.9L25.1,8.9L25.1,8.9z"/>
					<path class="st0" d="M2.3,10.1l-0.1,0.1v-1C2.3,9.5,2.3,9.8,2.3,10.1z"/>
					<path class="st0" d="M2.2,10.2v1.6l0,0V10.2L2.2,10.2z"/>
					<path class="st0" d="M0.6,16.9H0.4v-0.2c0-0.2,0-0.4,0-0.6C0.5,16.3,0.5,16.6,0.6,16.9z"/>
					<path class="st0" d="M0.4,15.3h0.2c-0.1,0.3-0.1,0.5-0.1,0.8c0-0.2,0-0.4,0-0.6L0.4,15.3L0.4,15.3z"/>
					<path class="st0" d="M0.4,15.4c0,0.2,0,0.4,0,0.6s0,0.4,0,0.6V15.4z"/>
				</g>
				<g>
					<path class="st1" d="M0.4,16.7c0,0.1,0,0.1,0,0.2c0,5.5,5.9,10,13.2,10s13.2-4.5,13.2-10c0-0.3,0-0.5,0-0.8"/>
					<polyline class="st1" points="26.7,16.9 26.9,16.9 26.9,16.1 26.9,16 					"/>
					<polyline class="st1" points="0.4,15.4 0.4,16.7 0.4,16.9 0.6,16.9 					"/>
					<path class="st1" d="M2.2,10.2L2.2,10.2c-1.2,1.5-1.8,3.2-1.8,5.1c0,0.1,0,0.1,0,0.2c0,0.2,0,0.4,0,0.6c0,0.3,0.1,0.5,0.1,0.8
						c1,4.7,6.5,8.3,13.1,8.3s12-3.6,13.1-8.3c0.1-0.3,0.1-0.5,0.1-0.8l0,0c0-0.3,0-0.5,0-0.8c0-1.8-0.7-3.5-1.8-5l0,0"/>
					<path class="st1" d="M25.1,15L25.1,15c0,0.1,0,0.2,0,0.3c0,0.5-0.1,1.1-0.3,1.6c-1.1,3.9-5.7,6.9-11.2,6.9S3.5,20.9,2.4,16.9
						c-0.1-0.5-0.2-1-0.3-1.6c0-0.1,0-0.2,0-0.3l0,0"/>
					<polyline class="st1" points="2.2,8.8 2.2,8.9 2.2,10.2 2.2,11.8 2.2,15.1 					"/>
					<polyline class="st1" points="25.1,8.8 25.1,8.9 25.1,8.9 25.1,10.3 25.1,11.9 25.1,14.6 25.1,15 25.1,15.1 					"/>
					<path class="st1" d="M25.1,8.9c0,0.4,0,0.8-0.1,1.2s-0.2,0.8-0.3,1.2c-0.1,0.2-0.2,0.4-0.3,0.6c-0.6,1.2-1.5,2.2-2.6,3.1
						c-0.1,0.1-0.3,0.2-0.5,0.3c-1,0.7-2.2,1.2-3.4,1.6c-1.3,0.4-2.7,0.6-4.2,0.6s-2.9-0.2-4.2-0.6C8.2,16.5,7,16,6,15.3
						c-0.2-0.1-0.3-0.2-0.5-0.3c-1.1-0.9-2-1.9-2.6-3c-0.1-0.2-0.2-0.4-0.3-0.6c-0.2-0.4-0.3-0.8-0.3-1.2c0-0.4,0-0.7-0.1-1
						c0-0.1,0-0.2,0-0.3c0-4.7,5.1-8.5,11.4-8.5C20,0.4,25,4.2,25.1,8.9L25.1,8.9z"/>
				</g>
			</g>
		</g>
	</g>
</g>
</svg>
