<?xml version="1.0" encoding="utf-8"?>
<!-- Generator: Adobe Illustrator 24.0.2, SVG Export Plug-In . SVG Version: 6.00 Build 0)  -->
<svg version="1.1" id="Layer_1" xmlns="http://www.w3.org/2000/svg" xmlns:xlink="http://www.w3.org/1999/xlink" x="0px" y="0px"
	 viewBox="0 0 27.3 27.2" style="enable-background:new 0 0 27.3 27.2;" xml:space="preserve">
<style type="text/css">
	.st0{fill:#FFFFFF;}
	.st1{fill:none;stroke:#FFFFFF;stroke-width:0.7482;stroke-miterlimit:10;}
	.st2{fill:none;stroke:#FFFFFF;stroke-width:0.5;stroke-linecap:round;stroke-linejoin:round;}
</style>
<g>
	<g>
		<g>
			<g id="XMLID_2_">
				<g>
					<path class="st0" d="M26.9,16L26.9,16C26.9,16.1,26.9,16.1,26.9,16C26.9,16.1,26.9,16.1,26.9,16z"/>
					<path class="st0" d="M26.7,16.9c0.1-0.3,0.1-0.5,0.1-0.8c0,0,0,0,0,0v0.8H26.7z"/>
					<path class="st0" d="M0.4,15.4c0,0.2,0,0.4,0,0.6c0,0.2,0,0.4,0,0.6V15.4z"/>
					<path class="st0" d="M0.6,16.9H0.4v-0.2c0-0.2,0-0.4,0-0.6C0.5,16.3,0.5,16.6,0.6,16.9z"/>
					<path class="st0" d="M26.9,16.1c0-0.3-0.1-0.5-0.1-0.8h0.1L26.9,16.1C26.9,16.1,26.9,16.1,26.9,16.1z"/>
					<path class="st0" d="M0.4,15.3h0.2c-0.1,0.3-0.1,0.5-0.1,0.8c0-0.2,0-0.4,0-0.6V15.3z"/>
				</g>
				<g>
					<path class="st1" d="M0.4,16.7c0,0.1,0,0.1,0,0.2c0,5.5,5.9,10,13.2,10s13.2-4.5,13.2-10c0-0.3,0-0.5,0-0.8"/>
					<polyline class="st1" points="26.7,16.9 26.9,16.9 26.9,16.1 26.9,16 					"/>
					<polyline class="st1" points="0.4,15.4 0.4,16.7 0.4,16.9 0.6,16.9 					"/>
					<path class="st1" d="M5.8,7.2c-3.3,1.8-5.4,4.7-5.4,8c0,0.1,0,0.1,0,0.2c0,0.2,0,0.4,0,0.6c0,0.3,0.1,0.5,0.1,0.8
						c1,4.7,6.5,8.3,13.1,8.3s12-3.6,13.1-8.3c0.1-0.3,0.1-0.5,0.1-0.8c0,0,0,0,0,0c0-0.3,0-0.5,0-0.8c0-3.3-2.1-6.1-5.3-8"/>
					<path class="st1" d="M24.8,11.5c0.2,0.6,0.3,1.3,0.3,1.9c0,0.2,0,0.5,0,0.7c0,0.4-0.1,0.8-0.2,1.1c-0.2,0.6-0.4,1.1-0.7,1.6
						c-1.8,3-5.8,5.1-10.5,5.1C9,22,5,19.9,3.2,16.9c-0.3-0.5-0.5-1-0.7-1.6c-0.1-0.3-0.2-0.7-0.2-1c0-0.3-0.1-0.5-0.1-0.8
						c0-0.7,0.1-1.3,0.3-2c0.5-1.6,1.7-3.1,3.3-4.2c2.1-1.4,4.8-2.3,7.9-2.3c3.1,0,5.9,0.9,8,2.4C23.2,8.4,24.3,9.9,24.8,11.5z"/>
					<path class="st1" d="M25.1,15.3c0,0.5-0.1,1.1-0.3,1.6c-1.1,3.9-5.7,6.9-11.2,6.9c-5.5,0-10.1-2.9-11.2-6.9
						c-0.1-0.5-0.2-1-0.3-1.6"/>
					<path class="st2" d="M25.2,13.3c0,0,0,1.4,0,2c0,0.1,0,0.1,0,0.2"/>
					<path class="st2" d="M2.1,13.3c0,0,0,1.4,0,2c0,0.1,0,0.1,0,0.2"/>
				</g>
			</g>
		</g>
	</g>
</g>
</svg>
