<?xml version="1.0" encoding="utf-8"?>
<!-- Generator: Adobe Illustrator 24.0.2, SVG Export Plug-In . SVG Version: 6.00 Build 0)  -->
<svg version="1.1" xmlns="http://www.w3.org/2000/svg" xmlns:xlink="http://www.w3.org/1999/xlink" x="0px" y="0px"
	 viewBox="0 0 150 115" style="enable-background:new 0 0 150 115;" xml:space="preserve">
<style type="text/css">
	.st0{fill:#FF9900;}
	.st1{fill:#FFFFFF;}
	.st2{display:none;}
	.st3{display:inline;fill:#5ABCFF;}
	.st4{fill:none;stroke:#FFFFFF;stroke-width:18.5;stroke-miterlimit:10;}
	.st5{fill:none;stroke:#FF9900;stroke-width:18.5;stroke-miterlimit:10;}
	.st6{fill:none;stroke:#FF9900;stroke-width:24.975;stroke-miterlimit:10;}
	.st7{fill:none;stroke:#000000;stroke-width:1.8438;stroke-miterlimit:10;}
</style>
<g id="Background">
</g>
<g id="Circle_Crop" class="st2">
</g>
<g id="Face">
	<g>
		<g>
			<g>
				<path d="M75,27.1c-22.9,0-41.4,18.5-41.4,41.4s18.5,41.4,41.4,41.4s41.4-18.5,41.4-41.4S97.9,27.1,75,27.1z M43.7,68.8h24
					c0,7.8-5.4,14.1-12,14.1C49,82.9,43.7,76.6,43.7,68.8z M75,96.7c-5.2,0-10-0.7-13.6-1.9c-5.5-1.8-6.7-4.5-6.7-6.3h1.8
					c0,1,0.7,3,5.4,4.6c3.4,1.1,8,1.8,13,1.8c5,0,9.6-0.6,13-1.8c4.7-1.6,5.4-3.5,5.4-4.6h1.8C95.3,94.2,85.1,96.7,75,96.7z
					 M94.4,82.9c-6.6,0-12-6.3-12-14.1h24C106.3,76.6,101,82.9,94.4,82.9z"/>
			</g>
		</g>
		<g>
			<path d="M24,108.3c-0.8-1.1-1.5-2.3-2.2-3.6c-1.4-2.6-1.9-5.7-1.6-8.9c0.2-1.6,0.4-3.3,0.7-4.9c0.5-2.5,1.6-4.7,3-6.6
				c0.3-0.6,4.8-17.9,5.2-18.4c-4.8,1.4-13.3,22.7-14.9,28.9c-2.2,8.5,1.5,16.9,8.2,18.6c2.6,0.7,5.3,0.3,7.7-0.9
				C27.8,111.9,25.5,110.6,24,108.3z"/>
			<path d="M36.5,101.5c-1.1-1.8-2.2-3.7-3.1-5.6c-2.1-4.3-3.2-9.6-3.5-15.5c-0.2-3.1-0.2-6.2-0.2-9.2c0-4.8,0.8-9.2,2-13.3
				c0.2-1.2,0.5-2.4,0.8-3.5c-5,4.5-8.8,14.7-9.3,26.7c-0.7,16.4,5,30,12.8,30.4c3,0.1,5.8-1.7,8.2-4.9
				C41.4,106.2,38.6,104.7,36.5,101.5z"/>
		</g>
		<g>
			<path d="M126,108.3c0.8-1.1,1.5-2.3,2.2-3.6c1.4-2.6,1.9-5.7,1.6-8.9c-0.2-1.6-0.4-3.3-0.7-4.9c-0.5-2.5-1.6-4.7-3-6.6
				c-0.3-0.6-4.8-17.9-5.2-18.4c4.8,1.4,13.3,22.7,14.9,28.9c2.2,8.5-1.5,16.9-8.2,18.6c-2.6,0.7-5.3,0.3-7.7-0.9
				C122.2,111.9,124.5,110.6,126,108.3z"/>
			<path d="M113.5,101.5c1.1-1.8,2.2-3.7,3.1-5.6c2.1-4.3,3.2-9.6,3.5-15.5c0.2-3.1,0.2-6.2,0.2-9.2c0-4.8-0.8-9.2-2-13.3
				c-0.2-1.2-0.5-2.4-0.8-3.5c5,4.5,8.8,14.7,9.3,26.7c0.7,16.4-5,30-12.8,30.4c-3,0.1-5.8-1.7-8.2-4.9
				C108.6,106.2,111.4,104.7,113.5,101.5z"/>
		</g>
		<g>
			<path d="M104.1,23.5c0,12.3,10,22.3,22.3,22.3s22.3-10,22.3-22.3s-10-22.3-22.3-22.3S104.1,11.2,104.1,23.5z M106.5,22.2
				c0.5-7.4,4.4-13.2,8.6-12.9c3.3,0.2,5.9,4,6.6,9.2c4-2.1,7.9-2.4,10-0.3c2.1,2.1,1.9,6-0.3,10c5.2,0.8,9,3.3,9.2,6.6
				c0.3,4.3-5.5,8.1-12.9,8.6c-6.5,0.4-12-1.8-13.6-5.2c-0.6-0.2-1.1-0.6-1.5-1c-0.4-0.4-0.8-0.9-1-1.5
				C108.3,34.2,106,28.6,106.5,22.2z"/>
			<g>
				<g>
					<g>
						<path class="st7" d="M131.4,28.2c-0.9,1.7-2.2,3.4-3.8,5c-4.5,4.5-10.1,6.5-13.5,5.1c1.5,3.4,7.1,5.7,13.6,5.2
							c7.4-0.5,13.2-4.4,12.9-8.6C140.4,31.5,136.6,28.9,131.4,28.2z"/>
					</g>
				</g>
				
					<ellipse transform="matrix(0.7071 -0.7071 0.7071 0.7071 16.1952 94.5224)" class="st7" cx="122.2" cy="27.7" rx="13.5" ry="7.7"/>
				<g>
					<g>
						<path class="st7" d="M116.7,22.2c1.6-1.6,3.3-2.8,5-3.8c-0.7-5.2-3.3-9-6.6-9.2c-4.3-0.3-8.1,5.5-8.6,12.9
							c-0.4,6.5,1.8,12,5.2,13.6C110.2,32.3,112.2,26.8,116.7,22.2z"/>
					</g>
				</g>
			</g>
		</g>
		<g>
			<path d="M23.6,1.2c-12.3,0-22.3,10-22.3,22.3s10,22.3,22.3,22.3s22.3-10,22.3-22.3S35.9,1.2,23.6,1.2z M38.3,35.7
				c-0.2,0.6-0.6,1.1-1,1.5c-0.4,0.4-0.9,0.8-1.5,1c-1.5,3.4-7.1,5.6-13.6,5.2C14.8,42.9,9,39.1,9.3,34.8c0.2-3.3,4-5.9,9.2-6.6
				c-2.1-4-2.4-7.9-0.3-10c2.1-2.1,6-1.9,10,0.3c0.8-5.2,3.3-9,6.6-9.2c4.3-0.3,8.1,5.5,8.6,12.9C44,28.6,41.7,34.2,38.3,35.7z"/>
			<g>
				<g>
					<g>
						<path class="st7" d="M22.3,33.2c-1.6-1.6-2.8-3.3-3.8-5c-5.2,0.7-9,3.3-9.2,6.6c-0.3,4.3,5.5,8.1,12.9,8.6
							c6.5,0.4,12-1.8,13.6-5.2C32.4,39.7,26.8,37.7,22.3,33.2z"/>
					</g>
				</g>
				
					<ellipse transform="matrix(0.7071 -0.7071 0.7071 0.7071 -11.4517 27.7769)" class="st7" cx="27.8" cy="27.7" rx="7.7" ry="13.5"/>
				<g>
					<g>
						<path class="st7" d="M43.5,22.2C43,14.7,39.2,9,34.9,9.2c-3.3,0.2-5.9,4.1-6.6,9.2c1.7,0.9,3.4,2.2,5,3.8
							c4.5,4.5,6.5,10.1,5.1,13.5C41.7,34.2,44,28.6,43.5,22.2z"/>
					</g>
				</g>
			</g>
		</g>
	</g>
</g>
</svg>
