<?xml version="1.0" encoding="utf-8"?>
<!-- Generator: Adobe Illustrator 24.0.2, SVG Export Plug-In . SVG Version: 6.00 Build 0)  -->
<svg version="1.1" xmlns="http://www.w3.org/2000/svg" xmlns:xlink="http://www.w3.org/1999/xlink" x="0px" y="0px"
	 viewBox="0 0 1326 338" style="enable-background:new 0 0 1326 338;" xml:space="preserve">
<style type="text/css">
	.st0{display:none;}
	.st1{display:inline;fill:#FF9900;}
	.st2{display:inline;fill:#FFFFFF;}
	.st3{clip-path:url(#SVGID_2_);}
	.st4{clip-path:url(#SVGID_4_);fill:#FFFFFF;}
	.st5{clip-path:url(#SVGID_4_);fill:none;stroke:#FFFFFF;stroke-width:5.4778;stroke-miterlimit:10;}
	.st6{fill:#FFFFFF;}
	.st7{clip-path:url(#SVGID_6_);}
	.st8{clip-path:url(#SVGID_8_);fill:#FF9900;}
	.st9{clip-path:url(#SVGID_8_);fill:none;stroke:#FF9900;stroke-width:5.4778;stroke-miterlimit:10;}
	.st10{fill:#FF9900;}
</style>
<g id="Background" class="st0">
	<rect x="-14" y="-14" class="st1" width="1354" height="366"/>
</g>
<g id="Logo">
	<g>
		<g>
			<g>
				<defs>
					<rect id="SVGID_1_" x="1.06" y="1.21" width="438.66" height="335.57"/>
				</defs>
				<clipPath id="SVGID_2_">
					<use xlink:href="#SVGID_1_"  style="overflow:visible;"/>
				</clipPath>
				<g class="st3">
					<defs>
						<rect id="SVGID_3_" x="1.06" y="1.21" width="438.66" height="335.57"/>
					</defs>
					<clipPath id="SVGID_4_">
						<use xlink:href="#SVGID_3_"  style="overflow:visible;"/>
					</clipPath>
					<path class="st4" d="M220.39,78.67c-67.91,0-122.96,55.05-122.96,122.96c0,67.91,55.05,122.96,122.96,122.96
						s122.96-55.05,122.96-122.96C343.35,133.72,288.3,78.67,220.39,78.67 M127.27,202.54h71.21c0,23.19-15.94,41.99-35.61,41.99
						S127.27,225.74,127.27,202.54 M220.39,285.58c-15.35,0-29.71-1.96-40.41-5.53c-16.4-5.47-19.85-13.23-19.85-18.77h5.48
						c0,3.07,2.09,8.91,16.1,13.58c10.16,3.39,23.9,5.25,38.68,5.25c14.78,0,28.52-1.86,38.68-5.25
						c14.01-4.67,16.1-10.51,16.1-13.58h5.48C280.65,278.06,250.39,285.58,220.39,285.58 M277.91,244.54
						c-19.66,0-35.61-18.8-35.61-41.99h71.21C313.51,225.74,297.57,244.54,277.91,244.54"/>
					<path class="st4" d="M68.74,320.06c-2.38-3.37-4.5-6.92-6.4-10.58c-4.03-7.78-5.64-16.87-4.76-26.41
						c0.45-4.9,1.27-9.76,2.18-14.6c1.41-7.47,4.69-13.96,8.99-19.65c0.98-1.77,14.38-53.18,15.52-54.76
						c-14.35,4.06-39.46,67.49-44.26,85.97c-6.58,25.37,4.37,50.17,24.46,55.38c7.69,2,15.6,0.83,22.81-2.78
						C80.05,330.53,73.42,326.69,68.74,320.06"/>
					<path class="st4" d="M105.94,299.57c-3.41-5.29-6.4-10.85-9.13-16.52c-6.17-12.78-9.56-28.38-10.51-45.95
						c-0.49-9.13-0.56-18.28-0.53-27.43c0.05-14.18,2.35-27.33,5.93-39.45c0.72-3.63,1.56-7.1,2.49-10.44
						c-14.93,13.41-26.21,43.63-27.77,79.2c-2.15,48.84,14.82,89.26,37.91,90.28c8.83,0.39,17.28-5.05,24.46-14.65
						C120.44,313.83,112.19,309.26,105.94,299.57"/>
					<path class="st4" d="M372.04,320.06c2.38-3.37,4.5-6.92,6.4-10.58c4.03-7.78,5.64-16.87,4.76-26.41
						c-0.45-4.9-1.27-9.76-2.18-14.6c-1.41-7.47-4.69-13.96-8.99-19.65c-0.98-1.77-14.38-53.18-15.52-54.76
						c14.35,4.06,39.46,67.49,44.26,85.97c6.58,25.37-4.37,50.17-24.46,55.38c-7.69,2-15.6,0.83-22.81-2.78
						C360.73,330.53,367.37,326.69,372.04,320.06"/>
					<path class="st4" d="M334.84,299.57c3.41-5.29,6.4-10.85,9.13-16.52c6.17-12.78,9.56-28.38,10.51-45.95
						c0.49-9.13,0.56-18.28,0.53-27.43c-0.05-14.18-2.35-27.33-5.93-39.45c-0.72-3.63-1.56-7.1-2.49-10.44
						c14.93,13.41,26.21,43.63,27.77,79.2c2.15,48.84-14.82,89.26-37.91,90.28c-8.83,0.39-17.28-5.05-24.46-14.65
						C320.34,313.83,328.6,309.26,334.84,299.57"/>
					<path class="st4" d="M306.8,67.96c0,36.64,29.71,66.35,66.35,66.35s66.35-29.71,66.35-66.35c0-36.65-29.71-66.35-66.35-66.35
						S306.8,31.31,306.8,67.96 M313.86,64.03c1.5-22.07,12.98-39.26,25.65-38.4c9.83,0.67,17.49,12.02,19.72,27.4
						c11.78-6.37,23.43-7.12,29.7-0.84c6.28,6.28,5.52,17.92-0.84,29.7c15.37,2.23,26.73,9.88,27.4,19.72
						c0.86,12.66-16.33,24.15-38.4,25.65c-19.18,1.3-35.72-5.36-40.29-15.45c-1.7-0.71-3.21-1.7-4.5-2.99
						c-1.29-1.29-2.28-2.8-2.99-4.5C319.22,99.75,312.56,83.2,313.86,64.03"/>
					<path class="st5" d="M415.48,101.6c-0.67-9.83-12.02-17.49-27.4-19.72c-2.74,5.07-6.52,10.16-11.22,14.87
						c-13.39,13.39-29.95,19.28-40.07,15.05c4.57,10.08,21.11,16.75,40.29,15.44C399.15,125.75,416.34,114.27,415.48,101.6z"/>
					
						<ellipse transform="matrix(0.7071 -0.7071 0.7071 0.7071 48.6959 278.5659)" class="st5" cx="360.61" cy="80.5" rx="40.05" ry="22.99"/>
					<path class="st5" d="M344.36,64.25c4.7-4.7,9.8-8.48,14.87-11.22c-2.23-15.37-9.88-26.73-19.72-27.4
						c-12.66-0.86-24.15,16.33-25.65,38.4c-1.3,19.18,5.36,35.72,15.45,40.29C325.08,94.2,330.96,77.64,344.36,64.25z"/>
					<path class="st4" d="M67.63,1.61c-36.64,0-66.35,29.71-66.35,66.35c0,36.64,29.71,66.35,66.35,66.35s66.35-29.71,66.35-66.35
						C133.99,31.31,104.28,1.61,67.63,1.61 M111.48,104.32c-0.71,1.7-1.7,3.21-2.99,4.5c-1.29,1.29-2.8,2.28-4.5,2.99
						c-4.57,10.08-21.11,16.75-40.29,15.45c-22.07-1.5-39.26-12.98-38.4-25.65c0.67-9.83,12.02-17.49,27.4-19.72
						c-6.37-11.78-7.12-23.43-0.84-29.7c6.28-6.28,17.92-5.52,29.7,0.84c2.23-15.37,9.88-26.73,19.72-27.4
						c12.67-0.86,24.15,16.33,25.65,38.4C128.23,83.2,121.56,99.75,111.48,104.32"/>
					<path class="st5" d="M63.92,96.75c-4.7-4.7-8.48-9.8-11.22-14.87c-15.37,2.23-26.73,9.88-27.4,19.72
						c-0.86,12.66,16.33,24.15,38.4,25.65c19.18,1.3,35.72-5.36,40.29-15.44C93.88,116.03,77.32,110.15,63.92,96.75z"/>
					
						<ellipse transform="matrix(0.7071 -0.7071 0.7071 0.7071 -33.4399 80.2722)" class="st5" cx="80.18" cy="80.5" rx="22.99" ry="40.05"/>
					<path class="st5" d="M126.93,64.03c-1.5-22.07-12.98-39.26-25.65-38.4c-9.83,0.67-17.49,12.02-19.72,27.4
						c5.07,2.74,10.16,6.52,14.87,11.22c13.39,13.39,19.28,29.95,15.05,40.07C121.56,99.75,128.23,83.2,126.93,64.03z"/>
				</g>
			</g>
		</g>
		<g>
			<path class="st6" d="M442.09,269.08l-14.56-120.31h22.58l7.13,70.11l9.06-69.96h17.68l9.51,69.51l7.28-69.66h22.28l-14.41,120.31
				h-23.17l-10.25-72.63l-9.65,72.63H442.09z"/>
			<path class="st6" d="M562.55,270.57c-6.14,0-11.46-1.04-15.97-3.12c-4.51-2.08-7.97-5.2-10.4-9.36
				c-2.43-4.16-3.64-9.36-3.64-15.6v-32.68c0-6.24,1.21-11.44,3.64-15.6c2.43-4.16,5.89-7.28,10.4-9.36
				c4.5-2.08,9.83-3.12,15.97-3.12c6.14,0,11.46,1.04,15.97,3.12c4.5,2.08,8,5.2,10.47,9.36c2.47,4.16,3.71,9.36,3.71,15.6v32.68
				c0,6.24-1.24,11.44-3.71,15.6c-2.48,4.16-5.97,7.28-10.47,9.36C574.01,269.53,568.69,270.57,562.55,270.57z M562.7,254.52
				c1.58,0,2.82-0.42,3.71-1.26c0.89-0.84,1.51-2.03,1.86-3.56c0.35-1.53,0.52-3.39,0.52-5.57v-35.94c0-2.18-0.17-4.03-0.52-5.57
				c-0.35-1.53-0.97-2.72-1.86-3.56c-0.89-0.84-2.13-1.26-3.71-1.26c-1.59,0-2.82,0.42-3.71,1.26c-0.89,0.84-1.54,2.03-1.93,3.56
				c-0.4,1.54-0.59,3.39-0.59,5.57v35.94c0,2.18,0.2,4.04,0.59,5.57c0.39,1.54,1.04,2.72,1.93,3.56
				C559.87,254.1,561.11,254.52,562.7,254.52z"/>
			<path class="st6" d="M606.07,269.08v-85.85h24.21v8.62c3.17-3.17,6.46-5.64,9.88-7.43s7-2.67,10.77-2.67
				c3.56,0,6.51,0.87,8.84,2.6c2.33,1.73,4.08,4.11,5.27,7.13c1.19,3.02,1.78,6.46,1.78,10.32v67.28h-24.06v-63.87
				c0-2.08-0.35-3.66-1.04-4.75c-0.69-1.09-1.98-1.63-3.86-1.63c-0.99,0-2.15,0.27-3.49,0.82c-1.34,0.54-2.7,1.31-4.08,2.3v67.14
				H606.07z"/>
			<path class="st6" d="M699.93,270.57c-6.34,0-11.24-2.23-14.7-6.68c-3.47-4.46-5.2-11.04-5.2-19.75v-35.5
				c0-5.35,0.74-10.03,2.23-14.04c1.49-4.01,3.71-7.15,6.68-9.43c2.97-2.28,6.63-3.42,10.99-3.42c3.17,0,6.19,0.62,9.06,1.86
				c2.87,1.24,5.5,2.9,7.87,4.98v-39.81h24.21v120.31h-24.21v-6.68c-2.67,2.58-5.45,4.58-8.32,6.02
				C705.68,269.85,702.81,270.57,699.93,270.57z M710.48,255.12c0.79,0,1.76-0.2,2.9-0.59c1.14-0.39,2.3-0.94,3.49-1.63v-54.21
				c-0.99-0.49-2.03-0.94-3.12-1.34c-1.09-0.39-2.13-0.59-3.12-0.59c-2.18,0-3.76,0.92-4.75,2.75c-0.99,1.83-1.49,4.04-1.49,6.61
				v39.51c0,1.78,0.2,3.39,0.59,4.83c0.39,1.44,1.04,2.58,1.93,3.42C707.81,254.7,708.99,255.12,710.48,255.12z"/>
			<path class="st6" d="M784.15,270.57c-6.24,0-11.58-1.11-16.04-3.34c-4.46-2.23-7.87-5.5-10.25-9.8
				c-2.38-4.31-3.56-9.48-3.56-15.52v-31.49c0-6.14,1.19-11.34,3.56-15.6c2.38-4.26,5.82-7.5,10.32-9.73
				c4.5-2.23,9.83-3.34,15.97-3.34c6.34,0,11.61,1.09,15.82,3.27c4.21,2.18,7.38,5.4,9.51,9.65c2.13,4.26,3.19,9.51,3.19,15.74
				v17.23h-34.46v16.49c0,2.18,0.25,3.96,0.74,5.35c0.49,1.39,1.19,2.38,2.08,2.97c0.89,0.59,1.93,0.89,3.12,0.89
				s2.25-0.27,3.19-0.82c0.94-0.54,1.68-1.41,2.23-2.6c0.54-1.19,0.82-2.82,0.82-4.9v-9.06h22.28v8.32c0,8.71-2.53,15.28-7.58,19.68
				C800.04,268.36,793.06,270.57,784.15,270.57z M778.21,216.35h12.18v-8.62c0-2.28-0.27-4.06-0.82-5.35
				c-0.54-1.29-1.29-2.18-2.23-2.67c-0.94-0.49-2.06-0.74-3.34-0.74c-1.19,0-2.21,0.3-3.04,0.89c-0.84,0.59-1.51,1.61-2,3.04
				c-0.5,1.44-0.74,3.49-0.74,6.16V216.35z"/>
			<path class="st6" d="M826.18,269.08v-85.85h24.21v14.26c2.77-4.95,5.54-8.74,8.32-11.36c2.77-2.62,6.14-3.94,10.1-3.94
				c0.79,0,1.49,0.03,2.08,0.07c0.59,0.05,1.14,0.17,1.63,0.37v24.06c-1.09-0.49-2.3-0.91-3.64-1.26c-1.34-0.35-2.75-0.52-4.23-0.52
				c-2.77,0-5.35,0.74-7.72,2.23c-2.38,1.49-4.56,3.52-6.54,6.09v55.85H826.18z"/>
			<path class="st6" d="M885.89,269.08v-69.51h-8.17v-16.34h8.17v-6.39c0-5.05,0.52-9.45,1.56-13.22c1.04-3.76,3.22-6.68,6.54-8.76
				c3.32-2.08,8.44-3.12,15.37-3.12c1.88,0,3.74,0.05,5.57,0.15c1.83,0.1,3.84,0.3,6.02,0.59v17.97c-0.69-0.2-1.51-0.37-2.45-0.52
				c-0.94-0.15-1.86-0.22-2.75-0.22c-1.78,0-3.17,0.52-4.16,1.56c-0.99,1.04-1.49,2.75-1.49,5.12v6.83h10.84v16.34H910.1v69.51
				H885.89z"/>
			<path class="st6" d="M945.45,270.57c-3.47,0-6.41-0.87-8.84-2.6c-2.43-1.73-4.23-4.13-5.42-7.2c-1.19-3.07-1.78-6.48-1.78-10.25
				v-67.28h24.21v64.46c0,2.08,0.37,3.69,1.11,4.83c0.74,1.14,2.05,1.71,3.94,1.71c1.09,0,2.23-0.27,3.42-0.82
				c1.19-0.54,2.42-1.16,3.71-1.86v-68.32h24.06v85.85H965.8v-7.87c-3.07,2.87-6.31,5.15-9.73,6.83S949.11,270.57,945.45,270.57z"/>
			<path class="st6" d="M1006.2,269.08V148.77h24.06v120.31H1006.2z"/>
			<path class="st6" d="M1079.12,270.86c-7.53,0-13.81-1.34-18.86-4.01c-5.05-2.67-8.86-6.81-11.44-12.4
				c-2.58-5.59-4.01-12.85-4.31-21.76l22.72-3.42c0.1,5.15,0.57,9.31,1.41,12.48c0.84,3.17,2.03,5.45,3.56,6.83
				c1.53,1.39,3.39,2.08,5.57,2.08c2.77,0,4.58-0.94,5.42-2.82c0.84-1.88,1.26-3.86,1.26-5.94c0-4.95-1.19-9.13-3.56-12.55
				c-2.38-3.42-5.6-6.86-9.65-10.32l-10.4-9.06c-4.56-3.86-8.39-8.24-11.51-13.14s-4.68-10.97-4.68-18.19c0-10.2,3.02-18,9.06-23.39
				c6.04-5.4,14.26-8.09,24.66-8.09c6.44,0,11.61,1.09,15.52,3.27c3.91,2.18,6.88,5.03,8.91,8.54c2.03,3.52,3.42,7.23,4.16,11.14
				c0.74,3.91,1.16,7.65,1.26,11.21l-22.87,2.82c-0.1-3.56-0.32-6.66-0.67-9.28c-0.35-2.62-1.07-4.65-2.15-6.09
				c-1.09-1.43-2.77-2.15-5.05-2.15c-2.48,0-4.28,1.04-5.42,3.12c-1.14,2.08-1.71,4.16-1.71,6.24c0,4.46,1.06,8.09,3.19,10.92
				c2.13,2.82,4.92,5.77,8.39,8.84l9.95,8.76c5.25,4.46,9.68,9.51,13.29,15.15c3.61,5.64,5.42,12.62,5.42,20.94
				c0,5.64-1.29,10.77-3.86,15.37c-2.58,4.6-6.21,8.24-10.92,10.92C1091.13,269.53,1085.56,270.86,1079.12,270.86z"/>
			<path class="st6" d="M1137.35,270.57c-3.47,0-6.41-0.87-8.84-2.6c-2.43-1.73-4.23-4.13-5.42-7.2c-1.19-3.07-1.78-6.48-1.78-10.25
				v-67.28h24.21v64.46c0,2.08,0.37,3.69,1.11,4.83c0.74,1.14,2.05,1.71,3.94,1.71c1.09,0,2.23-0.27,3.42-0.82
				c1.19-0.54,2.43-1.16,3.71-1.86v-68.32h24.06v85.85h-24.06v-7.87c-3.07,2.87-6.31,5.15-9.73,6.83
				C1144.55,269.72,1141.01,270.57,1137.35,270.57z"/>
			<path class="st6" d="M1239.68,270.57c-3.17,0-6.31-0.72-9.43-2.15c-3.12-1.43-6.12-3.39-8.99-5.87v6.54h-24.21V148.77h24.21v40.7
				c2.97-2.57,6.06-4.5,9.28-5.79c3.22-1.29,6.36-1.93,9.43-1.93c3.27,0,6.06,0.64,8.39,1.93c2.33,1.29,4.23,3.1,5.72,5.42
				c1.49,2.33,2.57,5.03,3.27,8.09c0.69,3.07,1.04,6.34,1.04,9.8v36.98c0,5.35-0.72,10-2.15,13.96c-1.44,3.96-3.54,7.05-6.31,9.28
				C1247.16,269.45,1243.74,270.57,1239.68,270.57z M1227.95,254.97c1.58,0,2.82-0.45,3.71-1.34c0.89-0.89,1.53-2.05,1.93-3.49
				c0.39-1.43,0.59-3.04,0.59-4.83v-40.1c0-1.68-0.2-3.19-0.59-4.53c-0.4-1.34-1.02-2.4-1.86-3.19c-0.84-0.79-2-1.19-3.49-1.19
				c-1.29,0-2.5,0.27-3.64,0.82c-1.14,0.55-2.25,1.21-3.34,2.01v53.47c1.09,0.69,2.2,1.26,3.34,1.71
				C1225.74,254.75,1226.86,254.97,1227.95,254.97z"/>
			<path class="st6" d="M1298.65,270.57c-7.53,0-13.79-1.68-18.79-5.05c-5-3.37-9.09-8.86-12.25-16.49l16.49-7.28
				c1.58,3.86,3.44,6.91,5.57,9.13c2.13,2.23,4.48,3.34,7.05,3.34c1.88,0,3.29-0.39,4.23-1.19c0.94-0.79,1.41-1.88,1.41-3.27
				c0-2.28-0.87-4.36-2.6-6.24c-1.73-1.88-4.83-4.65-9.28-8.32l-6.24-5.2c-4.56-3.86-8.15-7.6-10.77-11.21
				c-2.62-3.61-3.94-8.09-3.94-13.44c0-4.65,1.21-8.76,3.64-12.33c2.43-3.57,5.67-6.34,9.73-8.32c4.06-1.98,8.42-2.97,13.07-2.97
				c7.03,0,12.92,1.93,17.67,5.79c4.75,3.86,8.07,9.31,9.95,16.34l-15.59,7.13c-0.59-1.88-1.44-3.76-2.53-5.64
				c-1.09-1.88-2.4-3.47-3.94-4.75c-1.54-1.29-3.19-1.93-4.98-1.93c-1.58,0-2.85,0.45-3.79,1.34c-0.94,0.89-1.41,2.08-1.41,3.56
				c0,1.88,1.06,3.91,3.19,6.09c2.13,2.18,5.07,4.8,8.84,7.87l6.09,5.35c2.47,2.08,4.9,4.31,7.28,6.68c2.38,2.38,4.33,5,5.87,7.87
				c1.53,2.87,2.3,6.14,2.3,9.8c0,4.95-1.24,9.19-3.71,12.7c-2.48,3.52-5.72,6.16-9.73,7.95
				C1307.48,269.67,1303.2,270.57,1298.65,270.57z"/>
		</g>
	</g>
</g>
</svg>
