<?xml version="1.0" encoding="utf-8"?>
<!-- Generator: Adobe Illustrator 24.0.2, SVG Export Plug-In . SVG Version: 6.00 Build 0)  -->
<svg version="1.1" id="Layer_1" xmlns="http://www.w3.org/2000/svg" xmlns:xlink="http://www.w3.org/1999/xlink" x="0px" y="0px"
	 viewBox="0 0 196.2 50" style="enable-background:new 0 0 196.2 50;" xml:space="preserve">
<style type="text/css">
	.st0{display:none;}
	.st1{display:inline;fill:#FF9900;}
	.st2{clip-path:url(#SVGID_2_);}
	.st3{clip-path:url(#SVGID_4_);fill:#FFFFFF;}
	.st4{clip-path:url(#SVGID_6_);fill:#FFFFFF;}
	.st5{clip-path:url(#SVGID_8_);fill:#FFFFFF;}
	.st6{clip-path:url(#SVGID_10_);fill:#FFFFFF;}
	.st7{clip-path:url(#SVGID_12_);fill:#FFFFFF;}
	.st8{clip-path:url(#SVGID_14_);fill:#FFFFFF;}
	.st9{clip-path:url(#SVGID_16_);fill:none;stroke:#FFFFFF;stroke-width:0.8103;stroke-miterlimit:10;}
	.st10{clip-path:url(#SVGID_18_);fill:none;stroke:#FFFFFF;stroke-width:0.8103;stroke-miterlimit:9.9999;}
	.st11{clip-path:url(#SVGID_20_);fill:none;stroke:#FFFFFF;stroke-width:0.8103;stroke-miterlimit:10;}
	.st12{clip-path:url(#SVGID_22_);fill:#FFFFFF;}
	.st13{clip-path:url(#SVGID_24_);fill:none;stroke:#FFFFFF;stroke-width:0.8103;stroke-miterlimit:10;}
	.st14{clip-path:url(#SVGID_26_);fill:none;stroke:#FFFFFF;stroke-width:0.8103;stroke-miterlimit:9.9999;}
	.st15{clip-path:url(#SVGID_28_);fill:none;stroke:#FFFFFF;stroke-width:0.8103;stroke-miterlimit:10;}
	.st16{fill:#FFFFFF;}
</style>
<g id="Background" class="st0">
	<rect x="-578.9" y="-158" class="st1" width="1354" height="366"/>
</g>
<g id="Logo">
	<g>
		<g>
			<g>
				<g>
					<defs>
						<rect id="SVGID_1_" x="0.2" y="0.2" width="64.9" height="49.6"/>
					</defs>
					<clipPath id="SVGID_2_">
						<use xlink:href="#SVGID_1_"  style="overflow:visible;"/>
					</clipPath>
					<g class="st2">
						<g>
							<defs>
								<rect id="SVGID_3_" x="0.2" y="0.2" width="64.9" height="49.6"/>
							</defs>
							<clipPath id="SVGID_4_">
								<use xlink:href="#SVGID_3_"  style="overflow:visible;"/>
							</clipPath>
							<path class="st3" d="M32.6,11.6c-10,0-18.2,8.1-18.2,18.2S22.6,48,32.6,48s18.2-8.1,18.2-18.2S42.6,11.6,32.6,11.6 M18.8,30
								h10.5c0,3.4-2.4,6.2-5.3,6.2S18.8,33.4,18.8,30 M32.6,42.2c-2.3,0-4.4-0.3-6-0.8c-2.4-0.8-2.9-2-2.9-2.8h0.8
								c0,0.5,0.3,1.3,2.4,2c1.5,0.5,3.5,0.8,5.7,0.8s4.2-0.3,5.7-0.8c2.1-0.7,2.4-1.6,2.4-2h0.8C41.5,41.1,37,42.2,32.6,42.2
								 M41.1,36.2c-2.9,0-5.3-2.8-5.3-6.2h10.5C46.4,33.4,44,36.2,41.1,36.2"/>
						</g>
						<g>
							<defs>
								<rect id="SVGID_5_" x="0.2" y="0.2" width="64.9" height="49.6"/>
							</defs>
							<clipPath id="SVGID_6_">
								<use xlink:href="#SVGID_5_"  style="overflow:visible;"/>
							</clipPath>
							<path class="st4" d="M10.2,47.3c-0.4-0.5-0.7-1-0.9-1.6c-0.6-1.2-0.8-2.5-0.7-3.9c0.1-0.7,0.2-1.4,0.3-2.2
								c0.2-1.1,0.7-2.1,1.3-2.9c0.1-0.3,2.1-7.9,2.3-8.1c-2.1,0.6-5.8,10-6.5,12.7c-1,3.8,0.6,7.4,3.6,8.2c1.1,0.3,2.3,0.1,3.4-0.4
								C11.8,48.9,10.9,48.3,10.2,47.3"/>
						</g>
						<g>
							<defs>
								<rect id="SVGID_7_" x="0.2" y="0.2" width="64.9" height="49.6"/>
							</defs>
							<clipPath id="SVGID_8_">
								<use xlink:href="#SVGID_7_"  style="overflow:visible;"/>
							</clipPath>
							<path class="st5" d="M15.7,44.3c-0.5-0.8-0.9-1.6-1.4-2.4c-0.9-1.9-1.4-4.2-1.6-6.8c-0.1-1.4-0.1-2.7-0.1-4.1
								c0-2.1,0.3-4,0.9-5.8c0.1-0.5,0.2-1.1,0.4-1.5c-2.2,2-3.9,6.5-4.1,11.7c-0.3,7.2,2.2,13.2,5.6,13.4c1.3,0.1,2.6-0.7,3.6-2.2
								C17.8,46.4,16.6,45.7,15.7,44.3"/>
						</g>
						<g>
							<defs>
								<rect id="SVGID_9_" x="0.2" y="0.2" width="64.9" height="49.6"/>
							</defs>
							<clipPath id="SVGID_10_">
								<use xlink:href="#SVGID_9_"  style="overflow:visible;"/>
							</clipPath>
							<path class="st6" d="M55,47.3c0.4-0.5,0.7-1,0.9-1.6c0.6-1.2,0.8-2.5,0.7-3.9c-0.1-0.7-0.2-1.4-0.3-2.2
								c-0.2-1.1-0.7-2.1-1.3-2.9c-0.1-0.3-2.1-7.9-2.3-8.1c2.1,0.6,5.8,10,6.5,12.7c1,3.8-0.6,7.4-3.6,8.2
								c-1.1,0.3-2.3,0.1-3.4-0.4C53.4,48.9,54.3,48.3,55,47.3"/>
						</g>
						<g>
							<defs>
								<rect id="SVGID_11_" x="0.2" y="0.2" width="64.9" height="49.6"/>
							</defs>
							<clipPath id="SVGID_12_">
								<use xlink:href="#SVGID_11_"  style="overflow:visible;"/>
							</clipPath>
							<path class="st7" d="M49.5,44.3c0.5-0.8,0.9-1.6,1.4-2.4c0.9-1.9,1.4-4.2,1.6-6.8c0.1-1.4,0.1-2.7,0.1-4.1
								c0-2.1-0.3-4-0.9-5.8c-0.1-0.5-0.2-1.1-0.4-1.5c2.2,2,3.9,6.5,4.1,11.7c0.3,7.2-2.2,13.2-5.6,13.4c-1.3,0.1-2.6-0.7-3.6-2.2
								C47.4,46.4,48.6,45.7,49.5,44.3"/>
						</g>
						<g>
							<defs>
								<rect id="SVGID_13_" x="0.2" y="0.2" width="64.9" height="49.6"/>
							</defs>
							<clipPath id="SVGID_14_">
								<use xlink:href="#SVGID_13_"  style="overflow:visible;"/>
							</clipPath>
							<path class="st8" d="M45.4,10.1c0,5.4,4.4,9.8,9.8,9.8s9.8-4.4,9.8-9.8c0-5.4-4.4-9.8-9.8-9.8S45.4,4.6,45.4,10.1 M46.4,9.5
								c0.2-3.3,1.9-5.8,3.8-5.7c1.5,0.1,2.6,1.8,2.9,4.1c1.7-0.9,3.5-1.1,4.4-0.1c0.9,0.9,0.8,2.7-0.1,4.4c2.3,0.3,4,1.5,4.1,2.9
								c0.1,1.9-2.4,3.6-5.7,3.8c-2.8,0.2-5.3-0.8-6-2.3c-0.3-0.1-0.5-0.3-0.7-0.4s-0.3-0.4-0.4-0.7C47.2,14.8,46.2,12.3,46.4,9.5"
								/>
						</g>
						<g>
							<defs>
								<rect id="SVGID_15_" x="0.2" y="0.2" width="64.9" height="49.6"/>
							</defs>
							<clipPath id="SVGID_16_">
								<use xlink:href="#SVGID_15_"  style="overflow:visible;"/>
							</clipPath>
							<path class="st9" d="M61.5,15c-0.1-1.5-1.8-2.6-4.1-2.9c-0.4,0.8-1,1.5-1.7,2.2c-2,2-4.4,2.9-5.9,2.2c0.7,1.5,3.1,2.5,6,2.3
								C59,18.6,61.6,16.9,61.5,15z"/>
						</g>
						<g>
							<defs>
								
									<rect id="SVGID_17_" x="15.5" y="11" transform="matrix(0.7071 -0.7071 0.7071 0.7071 -11.2978 44.3903)" width="64.9" height="49.6"/>
							</defs>
							<clipPath id="SVGID_18_">
								<use xlink:href="#SVGID_17_"  style="overflow:visible;"/>
							</clipPath>
							
								<ellipse transform="matrix(0.7071 -0.7071 0.7071 0.7071 7.2035 41.209)" class="st10" cx="53.3" cy="11.9" rx="5.9" ry="3.4"/>
						</g>
						<g>
							<defs>
								<rect id="SVGID_19_" x="0.2" y="0.2" width="64.9" height="49.6"/>
							</defs>
							<clipPath id="SVGID_20_">
								<use xlink:href="#SVGID_19_"  style="overflow:visible;"/>
							</clipPath>
							<path class="st11" d="M50.9,9.5c0.7-0.7,1.4-1.3,2.2-1.7c-0.3-2.3-1.5-4-2.9-4.1c-1.9-0.1-3.6,2.4-3.8,5.7
								c-0.2,2.8,0.8,5.3,2.3,6C48.1,13.9,49,11.5,50.9,9.5z"/>
						</g>
						<g>
							<defs>
								<rect id="SVGID_21_" x="0.2" y="0.2" width="64.9" height="49.6"/>
							</defs>
							<clipPath id="SVGID_22_">
								<use xlink:href="#SVGID_21_"  style="overflow:visible;"/>
							</clipPath>
							<path class="st12" d="M10,0.2c-5.4,0-9.8,4.4-9.8,9.8s4.4,9.8,9.8,9.8s9.8-4.4,9.8-9.8C19.8,4.6,15.4,0.2,10,0.2 M16.5,15.4
								c-0.1,0.3-0.3,0.5-0.4,0.7c-0.2,0.2-0.4,0.3-0.7,0.4c-0.7,1.5-3.1,2.5-6,2.3c-3.3-0.2-5.8-1.9-5.7-3.8
								c0.1-1.5,1.8-2.6,4.1-2.9c-0.9-1.7-1.1-3.5-0.1-4.4c0.9-0.9,2.7-0.8,4.4,0.1c0.3-2.3,1.5-4,2.9-4.1c1.9-0.1,3.6,2.4,3.8,5.7
								C19,12.3,18,14.8,16.5,15.4"/>
						</g>
						<g>
							<defs>
								<rect id="SVGID_23_" x="0.2" y="0.2" width="64.9" height="49.6"/>
							</defs>
							<clipPath id="SVGID_24_">
								<use xlink:href="#SVGID_23_"  style="overflow:visible;"/>
							</clipPath>
							<path class="st13" d="M9.5,14.3c-0.7-0.7-1.3-1.4-1.7-2.2c-2.3,0.3-4,1.5-4.1,2.9c-0.1,1.9,2.4,3.6,5.7,3.8
								c2.8,0.2,5.3-0.8,6-2.3C13.9,17.2,11.4,16.3,9.5,14.3z"/>
						</g>
						<g>
							<defs>
								
									<rect id="SVGID_25_" x="3.3" y="-18.3" transform="matrix(0.7071 -0.7071 0.7071 0.7071 5.8853 27.2072)" width="64.9" height="49.6"/>
							</defs>
							<clipPath id="SVGID_26_">
								<use xlink:href="#SVGID_25_"  style="overflow:visible;"/>
							</clipPath>
							
								<ellipse transform="matrix(0.7071 -0.7071 0.7071 0.7071 -4.9465 11.8757)" class="st14" cx="11.9" cy="11.9" rx="3.4" ry="5.9"/>
						</g>
						<g>
							<defs>
								<rect id="SVGID_27_" x="0.2" y="0.2" width="64.9" height="49.6"/>
							</defs>
							<clipPath id="SVGID_28_">
								<use xlink:href="#SVGID_27_"  style="overflow:visible;"/>
							</clipPath>
							<path class="st15" d="M18.8,9.5c-0.2-3.3-1.9-5.8-3.8-5.7c-1.5,0.1-2.6,1.8-2.9,4.1c0.8,0.4,1.5,1,2.2,1.7
								c2,2,2.9,4.4,2.2,5.9C18,14.8,19,12.3,18.8,9.5z"/>
						</g>
					</g>
				</g>
			</g>
		</g>
		<g>
			<path class="st16" d="M65.4,39.8L63.2,22h3.3l1.1,10.4L69,22h2.6L73,32.3L74.1,22h3.3l-2.1,17.8h-3.4l-1.5-10.7l-1.4,10.7H65.4z"
				/>
			<path class="st16" d="M83.2,40c-0.9,0-1.7-0.2-2.4-0.5c-0.7-0.3-1.2-0.8-1.5-1.4c-0.4-0.6-0.5-1.4-0.5-2.3V31
				c0-0.9,0.2-1.7,0.5-2.3c0.4-0.6,0.9-1.1,1.5-1.4c0.7-0.3,1.5-0.5,2.4-0.5c0.9,0,1.7,0.2,2.4,0.5c0.7,0.3,1.2,0.8,1.5,1.4
				c0.4,0.6,0.5,1.4,0.5,2.3v4.8c0,0.9-0.2,1.7-0.5,2.3c-0.4,0.6-0.9,1.1-1.5,1.4C84.9,39.9,84.1,40,83.2,40z M83.2,37.7
				c0.2,0,0.4-0.1,0.5-0.2c0.1-0.1,0.2-0.3,0.3-0.5c0.1-0.2,0.1-0.5,0.1-0.8v-5.3c0-0.3,0-0.6-0.1-0.8c-0.1-0.2-0.1-0.4-0.3-0.5
				c-0.1-0.1-0.3-0.2-0.5-0.2c-0.2,0-0.4,0.1-0.5,0.2s-0.2,0.3-0.3,0.5c-0.1,0.2-0.1,0.5-0.1,0.8v5.3c0,0.3,0,0.6,0.1,0.8
				c0.1,0.2,0.2,0.4,0.3,0.5C82.8,37.6,83,37.7,83.2,37.7z"/>
			<path class="st16" d="M89.7,39.8V27.1h3.6v1.3c0.5-0.5,1-0.8,1.5-1.1c0.5-0.3,1-0.4,1.6-0.4c0.5,0,1,0.1,1.3,0.4
				c0.3,0.3,0.6,0.6,0.8,1.1c0.2,0.4,0.3,1,0.3,1.5v10h-3.6v-9.4c0-0.3-0.1-0.5-0.2-0.7c-0.1-0.2-0.3-0.2-0.6-0.2
				c-0.1,0-0.3,0-0.5,0.1c-0.2,0.1-0.4,0.2-0.6,0.3v9.9L89.7,39.8L89.7,39.8z"/>
			<path class="st16" d="M103.5,40c-0.9,0-1.7-0.3-2.2-1c-0.5-0.7-0.8-1.6-0.8-2.9v-5.3c0-0.8,0.1-1.5,0.3-2.1s0.5-1.1,1-1.4
				c0.4-0.3,1-0.5,1.6-0.5c0.5,0,0.9,0.1,1.3,0.3c0.4,0.2,0.8,0.4,1.2,0.7V22h3.6v17.8H106v-1c-0.4,0.4-0.8,0.7-1.2,0.9
				C104.4,39.9,104,40,103.5,40z M105.1,37.7c0.1,0,0.3,0,0.4-0.1c0.2-0.1,0.3-0.1,0.5-0.2v-8c-0.1-0.1-0.3-0.1-0.5-0.2
				c-0.2-0.1-0.3-0.1-0.5-0.1c-0.3,0-0.6,0.1-0.7,0.4c-0.1,0.3-0.2,0.6-0.2,1v5.8c0,0.3,0,0.5,0.1,0.7s0.2,0.4,0.3,0.5
				C104.7,37.7,104.9,37.7,105.1,37.7z"/>
			<path class="st16" d="M116,40c-0.9,0-1.7-0.2-2.4-0.5c-0.7-0.3-1.2-0.8-1.5-1.4c-0.4-0.6-0.5-1.4-0.5-2.3v-4.7
				c0-0.9,0.2-1.7,0.5-2.3c0.4-0.6,0.9-1.1,1.5-1.4c0.7-0.3,1.5-0.5,2.4-0.5c0.9,0,1.7,0.2,2.3,0.5c0.6,0.3,1.1,0.8,1.4,1.4
				c0.3,0.6,0.5,1.4,0.5,2.3v2.5h-5.1v2.4c0,0.3,0,0.6,0.1,0.8c0.1,0.2,0.2,0.4,0.3,0.4c0.1,0.1,0.3,0.1,0.5,0.1
				c0.2,0,0.3,0,0.5-0.1c0.1-0.1,0.2-0.2,0.3-0.4c0.1-0.2,0.1-0.4,0.1-0.7v-1.3h3.3v1.2c0,1.3-0.4,2.3-1.1,2.9
				C118.4,39.7,117.3,40,116,40z M115.1,32h1.8v-1.3c0-0.3,0-0.6-0.1-0.8c-0.1-0.2-0.2-0.3-0.3-0.4s-0.3-0.1-0.5-0.1
				c-0.2,0-0.3,0-0.4,0.1c-0.1,0.1-0.2,0.2-0.3,0.4c-0.1,0.2-0.1,0.5-0.1,0.9L115.1,32L115.1,32z"/>
			<path class="st16" d="M122.2,39.8V27.1h3.6v2.1c0.4-0.7,0.8-1.3,1.2-1.7c0.4-0.4,0.9-0.6,1.5-0.6c0.1,0,0.2,0,0.3,0
				c0.1,0,0.2,0,0.2,0.1v3.6c-0.2-0.1-0.3-0.1-0.5-0.2c-0.2-0.1-0.4-0.1-0.6-0.1c-0.4,0-0.8,0.1-1.1,0.3c-0.4,0.2-0.7,0.5-1,0.9v8.3
				L122.2,39.8L122.2,39.8z"/>
			<path class="st16" d="M131.1,39.8V29.5h-1.2v-2.4h1.2v-0.9c0-0.7,0.1-1.4,0.2-2c0.2-0.6,0.5-1,1-1.3c0.5-0.3,1.2-0.5,2.3-0.5
				c0.3,0,0.6,0,0.8,0c0.3,0,0.6,0,0.9,0.1v2.7c-0.1,0-0.2-0.1-0.4-0.1c-0.1,0-0.3,0-0.4,0c-0.3,0-0.5,0.1-0.6,0.2s-0.2,0.4-0.2,0.8
				v1h1.6v2.4h-1.6v10.3L131.1,39.8L131.1,39.8z"/>
			<path class="st16" d="M139.9,40c-0.5,0-0.9-0.1-1.3-0.4c-0.4-0.3-0.6-0.6-0.8-1.1c-0.2-0.5-0.3-1-0.3-1.5v-10h3.6v9.5
				c0,0.3,0.1,0.5,0.2,0.7s0.3,0.3,0.6,0.3c0.2,0,0.3,0,0.5-0.1c0.2-0.1,0.4-0.2,0.5-0.3V27.1h3.6v12.7h-3.6v-1.2
				c-0.5,0.4-0.9,0.8-1.4,1C140.9,39.9,140.4,40,139.9,40z"/>
			<path class="st16" d="M148.8,39.8V22h3.6v17.8L148.8,39.8L148.8,39.8z"/>
			<path class="st16" d="M159.6,40.1c-1.1,0-2-0.2-2.8-0.6c-0.7-0.4-1.3-1-1.7-1.8c-0.4-0.8-0.6-1.9-0.6-3.2l3.4-0.5
				c0,0.8,0.1,1.4,0.2,1.8c0.1,0.5,0.3,0.8,0.5,1c0.2,0.2,0.5,0.3,0.8,0.3c0.4,0,0.7-0.1,0.8-0.4s0.2-0.6,0.2-0.9
				c0-0.7-0.2-1.4-0.5-1.9c-0.4-0.5-0.8-1-1.4-1.5l-1.5-1.3c-0.7-0.6-1.2-1.2-1.7-1.9c-0.5-0.7-0.7-1.6-0.7-2.7
				c0-1.5,0.4-2.7,1.3-3.5c0.9-0.8,2.1-1.2,3.6-1.2c1,0,1.7,0.2,2.3,0.5c0.6,0.3,1,0.7,1.3,1.3c0.3,0.5,0.5,1.1,0.6,1.6
				c0.1,0.6,0.2,1.1,0.2,1.7l-3.4,0.4c0-0.5,0-1-0.1-1.4c-0.1-0.4-0.2-0.7-0.3-0.9c-0.2-0.2-0.4-0.3-0.7-0.3c-0.4,0-0.6,0.2-0.8,0.5
				c-0.2,0.3-0.3,0.6-0.3,0.9c0,0.7,0.2,1.2,0.5,1.6c0.3,0.4,0.7,0.9,1.2,1.3l1.5,1.3c0.8,0.7,1.4,1.4,2,2.2
				c0.5,0.8,0.8,1.9,0.8,3.1c0,0.8-0.2,1.6-0.6,2.3c-0.4,0.7-0.9,1.2-1.6,1.6C161.4,39.9,160.6,40.1,159.6,40.1z"/>
			<path class="st16" d="M168.2,40c-0.5,0-0.9-0.1-1.3-0.4c-0.4-0.3-0.6-0.6-0.8-1.1c-0.2-0.5-0.3-1-0.3-1.5v-10h3.6v9.5
				c0,0.3,0.1,0.5,0.2,0.7s0.3,0.3,0.6,0.3c0.2,0,0.3,0,0.5-0.1c0.2-0.1,0.4-0.2,0.5-0.3V27.1h3.6v12.7h-3.6v-1.2
				c-0.5,0.4-0.9,0.8-1.4,1C169.3,39.9,168.8,40,168.2,40z"/>
			<path class="st16" d="M183.4,40c-0.5,0-0.9-0.1-1.4-0.3c-0.5-0.2-0.9-0.5-1.3-0.9v1h-3.6V22h3.6v6c0.4-0.4,0.9-0.7,1.4-0.9
				c0.5-0.2,0.9-0.3,1.4-0.3c0.5,0,0.9,0.1,1.2,0.3c0.3,0.2,0.6,0.5,0.8,0.8c0.2,0.3,0.4,0.7,0.5,1.2c0.1,0.5,0.2,0.9,0.2,1.4v5.5
				c0,0.8-0.1,1.5-0.3,2.1c-0.2,0.6-0.5,1-0.9,1.4C184.5,39.9,184,40,183.4,40z M181.7,37.7c0.2,0,0.4-0.1,0.5-0.2
				c0.1-0.1,0.2-0.3,0.3-0.5c0.1-0.2,0.1-0.4,0.1-0.7v-5.9c0-0.2,0-0.5-0.1-0.7c-0.1-0.2-0.2-0.4-0.3-0.5c-0.1-0.1-0.3-0.2-0.5-0.2
				c-0.2,0-0.4,0-0.5,0.1c-0.2,0.1-0.3,0.2-0.5,0.3v7.9c0.2,0.1,0.3,0.2,0.5,0.3C181.3,37.7,181.5,37.7,181.7,37.7z"/>
			<path class="st16" d="M192.1,40c-1.1,0-2-0.2-2.8-0.7c-0.7-0.5-1.3-1.3-1.8-2.4l2.4-1.1c0.2,0.6,0.5,1,0.8,1.4
				c0.3,0.3,0.7,0.5,1,0.5c0.3,0,0.5-0.1,0.6-0.2c0.1-0.1,0.2-0.3,0.2-0.5c0-0.3-0.1-0.6-0.4-0.9c-0.3-0.3-0.7-0.7-1.4-1.2L190,34
				c-0.7-0.6-1.2-1.1-1.6-1.7c-0.4-0.5-0.6-1.2-0.6-2c0-0.7,0.2-1.3,0.5-1.8c0.4-0.5,0.8-0.9,1.4-1.2c0.6-0.3,1.2-0.4,1.9-0.4
				c1,0,1.9,0.3,2.6,0.9c0.7,0.6,1.2,1.4,1.5,2.4l-2.3,1.1c-0.1-0.3-0.2-0.6-0.4-0.8c-0.2-0.3-0.4-0.5-0.6-0.7
				c-0.2-0.2-0.5-0.3-0.7-0.3c-0.2,0-0.4,0.1-0.6,0.2c-0.1,0.1-0.2,0.3-0.2,0.5c0,0.3,0.2,0.6,0.5,0.9c0.3,0.3,0.7,0.7,1.3,1.2
				l0.9,0.8c0.4,0.3,0.7,0.6,1.1,1c0.4,0.4,0.6,0.7,0.9,1.2c0.2,0.4,0.3,0.9,0.3,1.4c0,0.7-0.2,1.4-0.5,1.9
				c-0.4,0.5-0.8,0.9-1.4,1.2C193.4,39.9,192.8,40,192.1,40z"/>
		</g>
	</g>
</g>
</svg>
